<?xml version="1.0" encoding="UTF-8" standalone="no"?>
<svg
   xmlns:dc="http://purl.org/dc/elements/1.1/"
   xmlns:cc="http://creativecommons.org/ns#"
   xmlns:rdf="http://www.w3.org/1999/02/22-rdf-syntax-ns#"
   xmlns:svg="http://www.w3.org/2000/svg"
   xmlns="http://www.w3.org/2000/svg"
   xmlns:xlink="http://www.w3.org/1999/xlink"
   xmlns:sodipodi="http://sodipodi.sourceforge.net/DTD/sodipodi-0.dtd"
   xmlns:inkscape="http://www.inkscape.org/namespaces/inkscape"
   viewBox="0 0 428.07001 105.56"
   version="1.1"
   id="svg760"
   sodipodi:docname="logo.svg"
   inkscape:version="0.92.3 (2405546, 2018-03-11)"
   width="428.07001"
   height="105.56">
  <metadata
     id="metadata764">
    <rdf:RDF>
      <cc:Work
         rdf:about="">
        <dc:format>image/svg+xml</dc:format>
        <dc:type
           rdf:resource="http://purl.org/dc/dcmitype/StillImage" />
        <dc:title>pewpew-wireframe</dc:title>
      </cc:Work>
    </rdf:RDF>
  </metadata>
  <sodipodi:namedview
     pagecolor="#ffffff"
     bordercolor="#666666"
     borderopacity="1"
     objecttolerance="10"
     gridtolerance="10"
     guidetolerance="10"
     inkscape:pageopacity="0"
     inkscape:pageshadow="2"
     inkscape:window-width="1477"
     inkscape:window-height="735"
     id="namedview762"
     showgrid="false"
     inkscape:zoom="0.42543582"
     inkscape:cx="931.10019"
     inkscape:cy="-158.17044"
     inkscape:window-x="0"
     inkscape:window-y="0"
     inkscape:window-maximized="0"
     inkscape:current-layer="svg760"
     fit-margin-top="0"
     fit-margin-left="0"
     fit-margin-right="0"
     fit-margin-bottom="0" />
  <defs
     id="defs76">
    <style
       id="style2">.a{fill:#e6e7e8;}.b{fill:#a7a9ac;}.c{fill:#939598;}.d{fill:#fff;}.e{fill:#db0017;}.f{fill:#fff200;}.g{fill:#1c75bc;}.h{fill:#39b54a;}.i{fill:#f15a29;}.j{fill:#662d91;}.k{fill:#ec008c;}.l{fill:#f7941e;}.m{fill:#c2b59b;}.n{fill:#726658;}.o{fill:url(#a);}.p{fill:url(#b);}.q{fill:url(#c);}.r{fill:url(#d);}.s{fill:url(#e);}.t{fill:url(#f);}.u{fill:url(#g);}.v{fill:#0a66a5;}.w{fill:#00253a;}.x{fill:#bbbdbf;opacity:0.61;}.y{fill:url(#h);}.z{fill:url(#i);}.aa{fill:url(#j);}.ab{fill:url(#k);}.ac{fill:url(#l);}.ad{fill:url(#m);}.ae{fill:url(#n);}.af{fill:url(#o);}.ag{fill:url(#p);}.ah{fill:url(#q);}.ai{fill:#414042;}.aj{fill:url(#r);}.ak{fill:url(#s);}.al{fill:url(#t);}.am{fill:url(#u);}.an{fill:url(#v);}.ao{fill:url(#w);}.ap{fill:url(#x);}.aq{fill:url(#y);}.ar{fill:url(#z);}.as{fill:url(#aa);}.at{fill:url(#ab);}.au{fill:url(#ac);}.av{fill:url(#ad);}.aw{fill:url(#ae);}.ax{fill:url(#af);}.ay{fill:url(#ag);}.az{fill:url(#ah);}.ba{fill:url(#ai);}.bb{fill:url(#aj);}</style>
    <linearGradient
       id="a"
       x1="580.59998"
       y1="-1417.5601"
       x2="559.70001"
       y2="-1426.75"
       gradientTransform="rotate(-13.67,6651.4473,1380.2158)"
       gradientUnits="userSpaceOnUse">
      <stop
         offset="0"
         stop-color="#808184"
         id="stop4" />
      <stop
         offset="0.01"
         stop-color="#828385"
         id="stop6" />
      <stop
         offset="0.69"
         stop-color="#dbdcdd"
         id="stop8" />
      <stop
         offset="1"
         stop-color="#fff"
         id="stop10" />
    </linearGradient>
    <linearGradient
       id="b"
       x1="13386.16"
       y1="149.37"
       x2="13386.16"
       y2="116.61"
       gradientTransform="matrix(-1,0,0,1,13526.95,0)"
       gradientUnits="userSpaceOnUse">
      <stop
         offset="0"
         stop-color="#808184"
         id="stop13" />
      <stop
         offset="0.13"
         stop-color="#949598"
         id="stop15" />
      <stop
         offset="0.54"
         stop-color="#cececf"
         id="stop17" />
      <stop
         offset="0.84"
         stop-color="#f1f2f2"
         id="stop19" />
      <stop
         offset="1"
         stop-color="#fff"
         id="stop21" />
    </linearGradient>
    <linearGradient
       id="c"
       x1="13383.04"
       y1="149.37"
       x2="13383.04"
       y2="116.61"
       xlink:href="#b"
       gradientTransform="translate(-58.64,-53.69)" />
    <linearGradient
       id="d"
       x1="13384.59"
       y1="149.37"
       x2="13384.59"
       y2="116.61"
       xlink:href="#b"
       gradientTransform="translate(-58.64,-53.69)" />
    <linearGradient
       id="e"
       x1="13425.62"
       y1="149.17"
       x2="13425.62"
       y2="116.41"
       gradientTransform="matrix(-1,0,0,1,13468.31,-53.69)"
       xlink:href="#a" />
    <linearGradient
       id="f"
       x1="13428.74"
       y1="149.17"
       x2="13428.74"
       y2="116.41"
       gradientTransform="matrix(-1,0,0,1,13468.31,-53.69)"
       xlink:href="#a" />
    <linearGradient
       id="g"
       x1="13427.18"
       y1="149.17"
       x2="13427.18"
       y2="116.41"
       gradientTransform="matrix(-1,0,0,1,13468.31,-53.69)"
       xlink:href="#a" />
    <linearGradient
       id="h"
       x1="13454.18"
       y1="790.90997"
       x2="13454.18"
       y2="750.79999"
       gradientTransform="matrix(-0.99,-0.1,-0.1,0.99,13572.68,631.25)"
       xlink:href="#a" />
    <linearGradient
       id="i"
       x1="13457.66"
       y1="790.90997"
       x2="13457.66"
       y2="750.79999"
       gradientTransform="matrix(-0.99,-0.1,-0.1,0.99,13572.68,631.25)"
       xlink:href="#a" />
    <radialGradient
       id="j"
       cx="13372.29"
       cy="74.589996"
       r="7.3400002"
       gradientTransform="matrix(-1,0,0,1,13526.95,0)"
       gradientUnits="userSpaceOnUse">
      <stop
         offset="0"
         stop-color="#bbbdbf"
         id="stop31" />
      <stop
         offset="0.3"
         stop-color="#aeafb2"
         id="stop33" />
      <stop
         offset="0.85"
         stop-color="#8b8c8f"
         id="stop35" />
      <stop
         offset="1"
         stop-color="#808184"
         id="stop37" />
    </radialGradient>
    <radialGradient
       id="k"
       cx="13440.8"
       cy="74.589996"
       r="7.3400002"
       xlink:href="#j"
       gradientTransform="translate(-58.64,-53.69)" />
    <radialGradient
       id="l"
       cx="13406.13"
       cy="77.860001"
       r="14.9"
       gradientTransform="matrix(-1,0,0,1,13526.95,0)"
       gradientUnits="userSpaceOnUse">
      <stop
         offset="0"
         stop-color="#fff"
         id="stop41" />
      <stop
         offset="0.14"
         stop-color="#f6f6f6"
         id="stop43" />
      <stop
         offset="0.37"
         stop-color="#dededf"
         id="stop45" />
      <stop
         offset="0.66"
         stop-color="#b6b7b9"
         id="stop47" />
      <stop
         offset="1"
         stop-color="#808184"
         id="stop49" />
    </radialGradient>
    <radialGradient
       id="m"
       cx="13406.13"
       cy="77.860001"
       r="14.9"
       xlink:href="#l"
       gradientTransform="translate(-58.64,-53.69)" />
    <linearGradient
       id="n"
       x1="577.22998"
       y1="-1419.45"
       x2="599.78003"
       y2="-1419.45"
       xlink:href="#a"
       gradientTransform="translate(-58.64,-53.69)" />
    <linearGradient
       id="o"
       x1="577.22998"
       y1="-1422.34"
       x2="599.78003"
       y2="-1422.34"
       xlink:href="#a"
       gradientTransform="translate(-58.64,-53.69)" />
    <linearGradient
       id="p"
       x1="41.939999"
       y1="973.94"
       x2="52.009998"
       y2="973.94"
       gradientTransform="rotate(7.58,7162.3678,865.22906)"
       xlink:href="#a" />
    <linearGradient
       id="q"
       x1="41.939999"
       y1="958.04999"
       x2="52.009998"
       y2="958.04999"
       gradientTransform="rotate(7.58,7162.3678,865.22906)"
       xlink:href="#a" />
    <linearGradient
       id="r"
       x1="569.91998"
       y1="-1403.61"
       x2="595.34003"
       y2="-1403.61"
       xlink:href="#a"
       gradientTransform="translate(-58.64,-53.69)" />
    <linearGradient
       id="s"
       x1="569.91998"
       y1="-1400.75"
       x2="595.34003"
       y2="-1400.75"
       xlink:href="#a"
       gradientTransform="translate(-58.64,-53.69)" />
    <linearGradient
       id="t"
       x1="569.91998"
       y1="-1399.13"
       x2="595.34003"
       y2="-1399.13"
       xlink:href="#a"
       gradientTransform="translate(-58.64,-53.69)" />
    <linearGradient
       id="u"
       x1="569.91998"
       y1="-1399.42"
       x2="595.34003"
       y2="-1399.42"
       xlink:href="#a"
       gradientTransform="translate(-58.64,-53.69)" />
    <linearGradient
       id="v"
       x1="569.91998"
       y1="-1400"
       x2="595.34003"
       y2="-1400"
       xlink:href="#a"
       gradientTransform="translate(-58.64,-53.69)" />
    <linearGradient
       id="w"
       x1="569.91998"
       y1="-1398.84"
       x2="595.34003"
       y2="-1398.84"
       xlink:href="#a"
       gradientTransform="translate(-58.64,-53.69)" />
    <linearGradient
       id="x"
       x1="569.91998"
       y1="-1400.03"
       x2="595.34003"
       y2="-1400.03"
       xlink:href="#a"
       gradientTransform="translate(-58.64,-53.69)" />
    <linearGradient
       id="y"
       x1="535.13"
       y1="-1412.95"
       x2="535.13"
       y2="-1453.0601"
       gradientTransform="rotate(-13.53,6511.1227,1129.406)"
       xlink:href="#a" />
    <linearGradient
       id="z"
       x1="13455.21"
       y1="790.90997"
       x2="13455.21"
       y2="750.79999"
       gradientTransform="matrix(-0.99,-0.1,-0.1,0.99,13572.68,631.25)"
       xlink:href="#a" />
    <linearGradient
       id="aa"
       x1="536.23999"
       y1="-1412.95"
       x2="536.23999"
       y2="-1453.0601"
       gradientTransform="rotate(-13.53,6511.1227,1129.406)"
       xlink:href="#a" />
    <linearGradient
       id="ab"
       x1="535.90002"
       y1="-1412.95"
       x2="535.90002"
       y2="-1453.0601"
       gradientTransform="rotate(-13.53,6511.1227,1129.406)"
       xlink:href="#a" />
    <linearGradient
       id="ac"
       x1="86.540001"
       y1="570.35999"
       x2="99.139999"
       y2="570.35999"
       gradientTransform="rotate(4.16,7537.9037,498.75121)"
       xlink:href="#a" />
    <linearGradient
       id="ad"
       x1="13454.83"
       y1="790.90997"
       x2="13454.83"
       y2="750.79999"
       gradientTransform="matrix(-0.99,-0.1,-0.1,0.99,13572.68,631.25)"
       xlink:href="#a" />
    <linearGradient
       id="ae"
       x1="86.540001"
       y1="571.45001"
       x2="99.139999"
       y2="571.45001"
       gradientTransform="rotate(4.16,7537.9037,498.75121)"
       xlink:href="#a" />
    <linearGradient
       id="af"
       x1="86.540001"
       y1="564.83002"
       x2="99.139999"
       y2="564.83002"
       gradientTransform="rotate(4.16,7537.9037,498.75121)"
       xlink:href="#a" />
    <linearGradient
       id="ag"
       x1="86.540001"
       y1="570.29999"
       x2="99.139999"
       y2="570.29999"
       gradientTransform="rotate(4.16,7537.9037,498.75121)"
       xlink:href="#a" />
    <linearGradient
       id="ah"
       x1="86.540001"
       y1="561.52002"
       x2="99.139999"
       y2="561.52002"
       gradientTransform="rotate(4.16,7537.9037,498.75121)"
       xlink:href="#a" />
    <linearGradient
       id="ai"
       x1="86.540001"
       y1="559.28003"
       x2="99.139999"
       y2="559.28003"
       gradientTransform="rotate(4.16,7537.9037,498.75121)"
       xlink:href="#a" />
    <linearGradient
       id="aj"
       x1="86.540001"
       y1="560.5"
       x2="99.139999"
       y2="560.5"
       gradientTransform="rotate(4.16,7537.9037,498.75121)"
       xlink:href="#a" />
    <linearGradient
       inkscape:collect="always"
       xlink:href="#a"
       id="linearGradient3340"
       gradientUnits="userSpaceOnUse"
       gradientTransform="rotate(-13.67,6398.1621,1597.9847)"
       x1="580.59998"
       y1="-1417.5601"
       x2="559.70001"
       y2="-1426.75" />
    <linearGradient
       inkscape:collect="always"
       xlink:href="#b"
       id="linearGradient3342"
       gradientUnits="userSpaceOnUse"
       gradientTransform="matrix(-1,0,0,1,13468.31,-53.69)"
       x1="13386.16"
       y1="149.37"
       x2="13386.16"
       y2="116.61" />
    <radialGradient
       inkscape:collect="always"
       xlink:href="#j"
       id="radialGradient3344"
       gradientUnits="userSpaceOnUse"
       gradientTransform="matrix(-1,0,0,1,13468.31,-53.69)"
       cx="13372.29"
       cy="74.589996"
       r="7.3400002" />
    <radialGradient
       inkscape:collect="always"
       xlink:href="#l"
       id="radialGradient3346"
       gradientUnits="userSpaceOnUse"
       gradientTransform="matrix(-1,0,0,1,13468.31,-53.69)"
       cx="13406.13"
       cy="77.860001"
       r="14.9" />
  </defs>
  <title
     id="title78">pewpew-wireframe</title>
  <path
     d="m 170.54,52.69 a 13.76,13.76 0 0 1 -8.8,2.86 h -12.08 l -5,19.07 H 132.77 L 151.58,3.31 h 11.86 l -0.5,1.91 13.16,-1.7 a 20,20 0 0 1 2,-0.32 18.66,18.66 0 0 1 1.88,-0.11 q 6.46,0 4.79,6.36 l -9.39,35.59 a 14,14 0 0 1 -4.84,7.65 z m 1.42,-39.51 -11.18,0.21 -8.52,32.31 h 7.31 a 4.78,4.78 0 0 0 3.22,-1 5.76,5.76 0 0 0 1.63,-3 z"
     id="path478"
     inkscape:connector-curvature="0" />
  <path
     d="M 206.54,55.55 H 186.1 q -6.67,0 -5,-6.46 l 10.37,-39.3 q 1.73,-6.48 8.4,-6.48 h 20.49 q 6.67,0 5,6.46 l -5.06,19.17 -4.15,3.28 h -19.24 l -3.86,14.62 h 11.12 l 2.29,-8.68 h 11.33 l -2.88,10.91 q -1.7,6.48 -8.37,6.48 z m 6.82,-43.54 h -11.12 l -3.3,12.5 h 11.12 z"
     id="path480"
     inkscape:connector-curvature="0" />
  <path
     d="m 260.64,55.66 h -10.38 l 2,-28.92 -13.24,28.92 h -10.26 l 2.6,-52.35 h 11.33 L 239.61,36.67 254,3.31 h 9 l -3.19,33.36 14.55,-33.36 h 11.33 z"
     id="path482"
     inkscape:connector-curvature="0" />
  <path
     class="e"
     d="m 312.94,52.69 a 13.76,13.76 0 0 1 -8.8,2.86 h -12.08 l -5,19.07 H 275.17 L 293.98,3.31 h 11.86 l -0.48,1.93 13.16,-1.7 a 20,20 0 0 1 2,-0.32 18.66,18.66 0 0 1 1.88,-0.11 q 6.46,0 4.79,6.36 l -9.39,35.59 a 14,14 0 0 1 -4.86,7.63 z m 1.42,-39.51 -11.18,0.21 -8.52,32.31 h 7.31 a 4.78,4.78 0 0 0 3.22,-1 5.76,5.76 0 0 0 1.63,-3 z"
     id="path484"
     inkscape:connector-curvature="0"
     style="fill:#db0017" />
  <path
     class="e"
     d="M 348.94,55.55 H 328.5 q -6.68,0 -5,-6.46 l 10.37,-39.3 q 1.73,-6.48 8.41,-6.48 h 20.44 q 6.67,0 5,6.46 l -5.06,19.17 -4.15,3.28 h -19.2 l -3.86,14.62 h 11.12 l 2.29,-8.68 h 11.33 l -2.83,10.93 q -1.75,6.46 -8.42,6.46 z m 6.82,-43.53 h -11.12 l -3.28,12.49 h 11.12 z"
     id="path486"
     inkscape:connector-curvature="0"
     style="fill:#db0017" />
  <path
     class="e"
     d="m 403.04,55.66 h -10.38 l 2,-28.92 -13.24,28.92 h -10.26 l 2.57,-52.35 h 11.33 l -3.08,33.36 14.38,-33.36 h 9 l -3.19,33.36 14.57,-33.36 h 11.33 z"
     id="path488"
     inkscape:connector-curvature="0"
     style="fill:#db0017" />
  <path
     d="m 292.82,83.74 v 1.94 a 105,105 0 0 1 -9.19,9.19 38.59,38.59 0 0 1 -8.18,5.57 17.54,17.54 0 0 1 -7.71,2 11.23,11.23 0 0 1 -5.53,-1.28 8.21,8.21 0 0 1 -3.48,-3.74 13.36,13.36 0 0 1 -1.18,-5.82 20.43,20.43 0 0 1 0.85,-5.61 30.88,30.88 0 0 1 2.46,-6 53,53 0 0 1 3.95,-6.24 q 2.34,-3.22 5.5,-6.76 a 62.85,62.85 0 0 1 6.46,-6.33 43.73,43.73 0 0 1 5.78,-4.18 26,26 0 0 1 4.81,-2.26 12.07,12.07 0 0 1 3.68,-0.74 4.37,4.37 0 0 1 2.53,0.71 4.55,4.55 0 0 1 1.61,2.08 8.22,8.22 0 0 1 0.57,3.16 15.7,15.7 0 0 1 -2.29,7.49 44.48,44.48 0 0 1 -5.72,8 50.88,50.88 0 0 1 -6.54,6.27 q -3.11,2.43 -4.48,2.43 a 2.48,2.48 0 0 1 -1.71,-0.73 2.2,2.2 0 0 1 -0.79,-1.65 7.39,7.39 0 0 1 1.8,-4.11 34.2,34.2 0 0 1 3.93,-4.42 q 2.13,-2 2.55,-2 a 0.17,0.17 0 0 1 0.21,0.18 2.63,2.63 0 0 1 -0.31,0.92 3.06,3.06 0 0 0 -0.31,0.8 c 0,0.16 0.06,0.24 0.18,0.24 q 0.51,0 2.92,-2.71 a 42.48,42.48 0 0 0 4.42,-6 11,11 0 0 0 2,-5.35 2.07,2.07 0 0 0 -0.37,-1.33 1.35,1.35 0 0 0 -1.12,-0.46 q -2.09,0 -6.33,3.38 a 64.16,64.16 0 0 0 -8.7,8.61 61.12,61.12 0 0 0 -7.43,10.8 q -3,5.57 -3,9.8 a 10,10 0 0 0 0.73,4.08 5.61,5.61 0 0 0 2.14,2.53 6.25,6.25 0 0 0 3.41,0.89 q 4.32,0 9.8,-3.37 a 68.86,68.86 0 0 0 12.08,-9.98 z"
     id="path490"
     inkscape:connector-curvature="0" />
  <path
     d="m 306.58,81.83 q -4.32,5.72 -6.57,8.13 -2.25,2.41 -3.65,2.42 a 2.92,2.92 0 0 1 -2.08,-0.94 6.17,6.17 0 0 1 -1.47,-2.53 10.9,10.9 0 0 1 -0.52,-3.41 9.4,9.4 0 0 1 0.22,-2.14 8.51,8.51 0 0 1 0.85,-2.1 19.47,19.47 0 0 1 1.65,-2.49 q 1,-1.34 2.52,-3 l 1.5,-1.76 a 3.49,3.49 0 0 1 1.19,-1 5.12,5.12 0 0 1 1.89,-0.25 6.44,6.44 0 0 1 1.82,0.25 1,1 0 0 1 0.86,0.52 4.79,4.79 0 0 1 -0.88,1.94 22.23,22.23 0 0 1 -2.83,3.41 39.3,39.3 0 0 1 -4.51,3.95 9.6,9.6 0 0 0 -0.57,2.68 q 0,1.28 1,1.28 a 2.61,2.61 0 0 0 1.19,-0.61 q 0.83,-0.61 2.81,-2.35 1.98,-1.74 3.56,-3.08 a 20.92,20.92 0 0 0 2.7,-3 q 1.53,-2 2.49,-3 2.2,-2.32 3,-3 a 2.41,2.41 0 0 1 1.55,-0.7 1,1 0 0 1 1,0.45 4.25,4.25 0 0 1 0.25,1.82 3.54,3.54 0 0 1 -0.12,1 4.75,4.75 0 0 1 -0.49,1 q -0.37,0.61 -1.5,2.25 l -2.75,3.74 a 15.37,15.37 0 0 0 -1.46,2.61 6,6 0 0 0 -0.63,2.13 q 0,1.55 1.22,1.55 a 4.63,4.63 0 0 0 2.35,-0.83 q 1.34,-0.83 4.11,-3 v 2 q -3.48,3.22 -5.15,4.68 a 22,22 0 0 1 -2.89,2.2 4.49,4.49 0 0 1 -2.32,0.74 q -2.5,0 -2.5,-3 a 9.06,9.06 0 0 1 0.74,-3.05 q 0.75,-1.87 2.42,-5.51 z"
     id="path492"
     inkscape:connector-curvature="0" />
  <path
     d="m 315.9,84.69 v -0.71 q 7.68,-8.1 10.57,-11.35 0.65,-3.66 3.16,-3.66 a 3,3 0 0 1 1.34,0.36 l 0.18,0.57 a 3.35,3.35 0 0 0 -0.12,1 9.53,9.53 0 0 0 0.43,2.1 q 0.43,1.53 0.67,2.58 a 10.61,10.61 0 0 1 0.24,2.35 8.38,8.38 0 0 1 -0.89,3.77 12.79,12.79 0 0 1 -2.59,3.46 28.1,28.1 0 0 1 -4.38,3.38 10.94,10.94 0 0 0 1.7,0.18 6.69,6.69 0 0 0 2.64,-0.61 16.56,16.56 0 0 0 2.89,-1.64 q 1.47,-1 3.44,-2.67 v 2 a 44.46,44.46 0 0 1 -6.82,5.64 10.13,10.13 0 0 1 -5.18,1.92 7.23,7.23 0 0 1 -5.18,-2.38 6.39,6.39 0 0 1 -1.74,-2.74 14.57,14.57 0 0 1 -0.36,-3.55 z m 11.11,-4.56 -0.54,-4.35 q -1.85,2.09 -7.89,8 a 5,5 0 0 1 2.44,1 16.48,16.48 0 0 1 1.85,2.53 7.21,7.21 0 0 0 3.11,-2.28 6.42,6.42 0 0 0 1.09,-3.95 q 0,-0.3 0,-0.54 c -0.03,-0.09 -0.04,-0.23 -0.06,-0.41 z"
     id="path494"
     inkscape:connector-curvature="0" />
  <path
     d="m 345.51,68.4 h 1.28 a 16.55,16.55 0 0 1 2.86,-4 4.19,4.19 0 0 1 2.92,-1.18 q 1.64,0 1.64,0.74 a 6,6 0 0 1 -1.28,1.94 25.71,25.71 0 0 0 -1.94,2.65 l 1.8,0.21 1.24,0.15 a 46.88,46.88 0 0 1 -4.26,6.46 l -1.41,-0.06 -1.15,-0.09 -1.41,-0.1 q -1.61,2.59 -2.7,4.63 a 25.94,25.94 0 0 0 -1.67,3.74 10,10 0 0 0 -0.58,3.22 q 0,2.06 1.64,2.06 a 5.94,5.94 0 0 0 3,-1.21 q 1.83,-1.21 4.9,-3.71 v 2 q -8,8.73 -11.88,8.73 a 2.61,2.61 0 0 1 -2.16,-1 4.21,4.21 0 0 1 -0.82,-2.68 9.24,9.24 0 0 1 0.46,-2.62 q 0.46,-1.52 1.65,-4.59 l -0.79,0.7 -0.69,0.63 -0.67,0.6 -0.71,0.64 V 84.2 q 3.13,-2.62 7.57,-9.2 h -0.83 -0.96 a 10.64,10.64 0 0 0 -2.62,0.24 l -0.67,0.19 a 1.66,1.66 0 0 1 -0.43,0.1 q -0.12,0 -0.12,-0.18 a 6.56,6.56 0 0 1 1.22,-2.95 10.87,10.87 0 0 1 1.86,-2.47 4.59,4.59 0 0 1 2.14,-1.09 17.21,17.21 0 0 1 3.57,-0.44 z"
     id="path496"
     inkscape:connector-curvature="0" />
  <path
     d="m 369.45,83.8 v 2 a 15.75,15.75 0 0 1 -3.16,2.38 7,7 0 0 1 -3.43,0.48 q -3.87,4.59 -6.82,4.59 a 4.73,4.73 0 0 1 -3,-1.1 7.63,7.63 0 0 1 -2.19,-3 10.68,10.68 0 0 1 -0.82,-4.26 9,9 0 0 1 1.27,-4.23 19,19 0 0 1 3.28,-4.33 18.51,18.51 0 0 1 4.3,-3.25 9.07,9.07 0 0 1 4.26,-1.24 4.69,4.69 0 0 1 2.2,0.43 1.33,1.33 0 0 1 0.8,1.21 2.22,2.22 0 0 1 -0.69,1.37 2.54,2.54 0 0 1 1.55,0.79 3.5,3.5 0 0 1 0.42,2 12.76,12.76 0 0 1 -0.67,3.6 18,18 0 0 1 -1.83,4.08 l 0.54,0.54 h 0.45 a 2.16,2.16 0 0 0 1,-0.25 6.66,6.66 0 0 0 0.88,-0.54 z m -6.09,-7.84 q -2.47,1.49 -4.23,2.7 a 20.46,20.46 0 0 0 -3,2.44 6.57,6.57 0 0 0 -1.64,2.49 q -0.74,3.34 -0.74,3.6 0,2 2.74,2 1.28,0 4.29,-2.2 a 7.87,7.87 0 0 1 -0.51,-2.68 10.32,10.32 0 0 1 0.77,-3.83 31.65,31.65 0 0 1 2.32,-4.52 z"
     id="path498"
     inkscape:connector-curvature="0" />
  <path
     d="m 383.01,87.94 q 4.11,-3.63 7.06,-6.33 l 4.63,-4.24 q 1.68,-1.55 3,-2.62 a 4.37,4.37 0 0 1 1.64,-1.07 q 0.68,0 1.31,1.41 a 6.25,6.25 0 0 1 0.63,2.31 q 0,0.57 -1.89,2.67 -1.89,2.1 -2.83,3.35 a 4.31,4.31 0 0 0 -0.94,2.62 1.68,1.68 0 0 0 0.54,1.3 1.83,1.83 0 0 0 1.28,0.49 3.72,3.72 0 0 0 2.07,-0.89 q 1.21,-0.89 3.8,-3.19 v 2.11 q -2.59,2.44 -4.71,4.21 a 25.32,25.32 0 0 1 -3.68,2.65 5.65,5.65 0 0 1 -2.61,0.88 2,2 0 0 1 -1.55,-0.7 2.52,2.52 0 0 1 -0.63,-1.74 6.31,6.31 0 0 1 0.36,-2.06 18.54,18.54 0 0 1 1.1,-2.47 q 0.74,-1.43 2,-3.44 l 2.23,-3.68 q -3,2.47 -5.39,4.77 -2.39,2.3 -3.84,4 l -2.35,2.7 a 4.52,4.52 0 0 1 -3.1,1.85 q -1.55,0 -1.55,-2.2 a 9,9 0 0 1 1.16,-3.2 q 1.16,-2.31 3.31,-5.88 a 1.25,1.25 0 0 0 0.18,-0.74 0.53,0.53 0 0 0 -0.6,-0.6 3.43,3.43 0 0 0 -1.89,1.24 q -1.24,1.24 -4.78,5.17 a 31.22,31.22 0 0 0 -2.22,2.87 28.71,28.71 0 0 1 -1.77,2.37 1.49,1.49 0 0 1 -1.07,0.6 q -1.07,0 -2,-1.91 a 10.07,10.07 0 0 1 -0.92,-4.44 7.64,7.64 0 0 1 0.61,-3.19 28,28 0 0 1 1.89,-3.34 29.74,29.74 0 0 1 3.26,-4.13 3.8,3.8 0 0 1 2.61,-1.24 2.89,2.89 0 0 1 1.46,0.34 1,1 0 0 1 0.6,0.94 4.39,4.39 0 0 1 -1.09,2.06 22.42,22.42 0 0 1 -2.76,2.95 11.59,11.59 0 0 0 -1.7,2.13 4.21,4.21 0 0 0 -0.8,1.83 0.64,0.64 0 0 0 0.63,0.8 q 0.51,0 2.56,-2.08 2.05,-2.08 4.51,-4.54 a 48.68,48.68 0 0 1 4.56,-4.08 6.32,6.32 0 0 1 3.56,-1.62 1.87,1.87 0 0 1 1.47,0.67 2.44,2.44 0 0 1 0.58,1.65 6.53,6.53 0 0 1 -0.89,2.37 44.36,44.36 0 0 1 -2.61,4.23 q -1.72,2.5 -4.43,6.08 z"
     id="path500"
     inkscape:connector-curvature="0" />
  <path
     d="m 402.93,84.69 v -0.71 q 7.68,-8.1 10.57,-11.35 0.65,-3.66 3.16,-3.66 a 3,3 0 0 1 1.34,0.36 l 0.18,0.57 a 3.35,3.35 0 0 0 -0.12,1 9.53,9.53 0 0 0 0.43,2.1 q 0.43,1.53 0.67,2.58 a 10.61,10.61 0 0 1 0.24,2.35 8.38,8.38 0 0 1 -0.89,3.77 12.79,12.79 0 0 1 -2.59,3.46 28.1,28.1 0 0 1 -4.38,3.38 10.94,10.94 0 0 0 1.7,0.18 6.69,6.69 0 0 0 2.64,-0.61 16.56,16.56 0 0 0 2.89,-1.64 q 1.47,-1 3.44,-2.67 v 2 a 44.46,44.46 0 0 1 -6.82,5.64 10.13,10.13 0 0 1 -5.18,1.92 7.23,7.23 0 0 1 -5.18,-2.38 6.39,6.39 0 0 1 -1.74,-2.74 14.57,14.57 0 0 1 -0.36,-3.55 z m 11.11,-4.56 -0.54,-4.35 q -1.85,2.09 -7.89,8 a 5,5 0 0 1 2.44,1 16.48,16.48 0 0 1 1.85,2.53 7.21,7.21 0 0 0 3.11,-2.28 6.42,6.42 0 0 0 1.09,-3.95 q 0,-0.3 0,-0.54 c -0.02,-0.09 -0.04,-0.23 -0.06,-0.41 z"
     id="path502"
     inkscape:connector-curvature="0" />
  <path
     class="o"
     d="m 24.15,49.59 0.59,-3.34 -8.86,-2.77 a 1.12,1.12 0 0 1 -0.71,-1.46 l 3.24,-8.47 -2.74,-2.24 -5.31,14 z"
     id="path504"
     inkscape:connector-curvature="0"
     style="fill:url(#linearGradient3340)" />
  <path
     class="p"
     d="m 81.56,76.61 c 0.41,4.24 0.74,8.87 0.75,12.87 h 0.43 c 0,-4 -0.34,-8.65 -0.75,-12.88 z"
     id="path506"
     inkscape:connector-curvature="0"
     style="fill:url(#linearGradient3342)" />
  <path
     class="q"
     d="m 84.66,75.98 c 0.43,4.37 0.78,9.21 0.79,13.45 l 0.43,0.06 c 0,-4.29 -0.36,-9.21 -0.8,-13.63 z"
     id="path508"
     inkscape:connector-curvature="0"
     style="fill:url(#c)" />
  <path
     d="m 81.99,76.55 c 0.41,4.23 0.74,8.86 0.75,12.88 0.43,0 0.87,-0.07 1.32,-0.07 0.45,0 0.93,0 1.39,0.07 0,-4.24 -0.36,-9.08 -0.79,-13.45 a 20.5,20.5 0 0 1 -2.67,0.57 z"
     id="path510"
     inkscape:connector-curvature="0" />
  <path
     class="r"
     d="m 81.99,76.55 c 0.41,4.23 0.74,8.86 0.75,12.88 0.43,0 0.87,-0.07 1.32,-0.07 0.45,0 0.93,0 1.39,0.07 0,-4.24 -0.36,-9.08 -0.79,-13.45 a 20.5,20.5 0 0 1 -2.67,0.57 z"
     id="path512"
     inkscape:connector-curvature="0"
     style="fill:url(#d)" />
  <path
     class="s"
     d="m 43.26,76.73 h -0.42 c -0.4,4.21 -0.72,8.78 -0.72,12.73 l 0.42,0.05 c 0,-3.99 0.32,-8.57 0.72,-12.78 z"
     id="path514"
     inkscape:connector-curvature="0"
     style="fill:url(#e)" />
  <path
     class="t"
     d="m 39.73,76.24 c -0.42,4.33 -0.75,9.09 -0.74,13.25 l 0.43,-0.05 c 0,-4.11 0.32,-8.8 0.74,-13.1 z"
     id="path516"
     inkscape:connector-curvature="0"
     style="fill:url(#f)" />
  <path
     d="m 40.15,76.31 c -0.41,4.29 -0.74,9 -0.74,13.1 0.45,0 0.9,-0.07 1.35,-0.07 0.45,0 0.91,0 1.35,0.07 0,-3.95 0.32,-8.52 0.72,-12.73 a 20.13,20.13 0 0 1 -2.68,-0.37 z"
     id="path518"
     inkscape:connector-curvature="0" />
  <path
     class="u"
     d="m 40.15,76.31 c -0.41,4.29 -0.74,9 -0.74,13.1 0.45,0 0.9,-0.07 1.35,-0.07 0.45,0 0.91,0 1.35,0.07 0,-3.95 0.32,-8.52 0.72,-12.73 a 20.13,20.13 0 0 1 -2.68,-0.37 z"
     id="path520"
     inkscape:connector-curvature="0"
     style="fill:url(#g)" />
  <path
     class="v"
     d="m 91.04,97.96 a 4.42,4.42 0 0 0 0,-3 11.27,11.27 0 0 0 -18.21,7.42 h 11.8 c 1.61,-2.94 5.21,-1.62 6.41,-4.42 z"
     id="path522"
     inkscape:connector-curvature="0"
     style="fill:#0a66a5" />
  <path
     class="w"
     d="m 91.07,94.95 a 4.42,4.42 0 0 1 0,3 c -1.2,2.8 -4.8,1.48 -6.37,4.42 h 10.6 a 11.28,11.28 0 0 0 -4.23,-7.42 z"
     id="path524"
     inkscape:connector-curvature="0"
     style="fill:#00253a" />
  <path
     class="v"
     d="m 43.54,92.85 -0.83,0.93 c -1,1.13 3,3.58 3.45,4.35 a 3.28,3.28 0 0 1 -0.51,4.24 h 6.31 a 11.31,11.31 0 0 0 -8.42,-9.52 z"
     id="path526"
     inkscape:connector-curvature="0"
     style="fill:#0a66a5" />
  <path
     class="v"
     d="m 46.16,98.13 c -0.43,-0.78 -4.45,-3.22 -3.45,-4.35 l 0.83,-0.93 a 11.25,11.25 0 0 0 -14,9.53 h 16.12 a 3.28,3.28 0 0 0 0.5,-4.25 z"
     id="path528"
     inkscape:connector-curvature="0"
     style="fill:#0a66a5" />
  <path
     class="x"
     d="m 46.16,98.13 c -0.43,-0.78 -4.45,-3.22 -3.45,-4.35 l 0.83,-0.93 a 11.25,11.25 0 0 0 -14,9.53 h 16.12 a 3.28,3.28 0 0 0 0.5,-4.25 z"
     id="path530"
     inkscape:connector-curvature="0"
     style="opacity:0.61000001;fill:#bbbdbf" />
  <path
     class="y"
     d="m 107.81,42.18 q 0.63,3.45 1.5,7 c 0.27,-2.52 0.44,-4.9 0.54,-7.15 z"
     id="path532"
     inkscape:connector-curvature="0"
     style="fill:url(#h)" />
  <path
     class="z"
     d="m 106.44,31.56 h 0.1 c 0,0 0,-0.09 0,-0.13 z"
     id="path534"
     inkscape:connector-curvature="0"
     style="fill:url(#i)" />
  <path
     class="v"
     d="m 15.05,27.93 a 36.38,36.38 0 0 0 6.31,-1.25 8.44,8.44 0 0 1 4.36,-14 l -0.5,-0.17 h -0.1 c -3.18,-1.08 -6.45,-2.18 -9.68,-2.26 -1,0.59 -1.82,1.71 -1.22,3.81 1.19,4.17 -0.6,4.76 -4.17,4.47 -2.81,-0.23 -3.59,1.55 -3.8,2.33 z"
     id="path536"
     inkscape:connector-curvature="0"
     style="fill:#0a66a5" />
  <path
     class="w"
     d="m 15.05,27.93 9.38,7.61 2.93,-4.52 c -0.05,-0.56 -0.1,-1.12 -0.15,-1.67 a 8.43,8.43 0 0 1 -5.85,-2.67 36.38,36.38 0 0 1 -6.31,1.25 z"
     id="path538"
     inkscape:connector-curvature="0"
     style="fill:#00253a" />
  <path
     class="v"
     d="m 10.03,18.45 c 3.57,0.3 5.36,-0.3 4.17,-4.47 -0.6,-2.11 0.24,-3.22 1.22,-3.81 a 13,13 0 0 0 -3.54,0.38 c -3.89,1 -6.46,4.28 -8.86,7.62 l 3.22,2.61 C 6.44,20 7.22,18.22 10.03,18.45 Z"
     id="path540"
     inkscape:connector-curvature="0"
     style="fill:#0a66a5" />
  <path
     class="x"
     d="m 10.03,18.45 c 3.57,0.3 5.36,-0.3 4.17,-4.47 -0.6,-2.11 0.24,-3.22 1.22,-3.81 a 13,13 0 0 0 -3.54,0.38 c -3.89,1 -6.46,4.28 -8.86,7.62 l 3.22,2.61 C 6.44,20 7.22,18.22 10.03,18.45 Z"
     id="path542"
     inkscape:connector-curvature="0"
     style="opacity:0.61000001;fill:#bbbdbf" />
  <path
     class="w"
     d="m 101.74,14.69 a 2.66,2.66 0 0 1 1.78,-0.21 l 0.42,-0.79 1,0.53 0.14,0.09 h 0.06 a 2.46,2.46 0 0 1 0.73,-0.3 2.31,2.31 0 0 1 0.57,-0.5 l 0.4,-0.24 a 2.41,2.41 0 0 1 0.68,-0.28 v 0 a 2.44,2.44 0 0 1 0.59,-0.51 l 0.36,-0.22 a 2.6,2.6 0 0 1 0.76,-0.32 2.35,2.35 0 0 1 0.58,-0.5 l 0.39,-0.24 0.21,-0.1 a 2.46,2.46 0 0 1 0.89,-0.24 c -0.26,-0.09 -0.52,-0.2 -0.79,-0.27 -4.37,-1.12 -8.87,0.41 -13.22,1.88 h -0.1 -0.14 a 8.42,8.42 0 0 1 4.69,2.22 z"
     id="path544"
     inkscape:connector-curvature="0"
     style="fill:#00253a" />
  <path
     class="w"
     d="m 117.7,15.91 -0.93,0.57 0.54,0.83 -5.52,3.37 a 18.73,18.73 0 0 1 1.29,2.63 l 6.28,-5.14 c -0.51,-0.77 -1.07,-1.53 -1.66,-2.26 z"
     id="path546"
     inkscape:connector-curvature="0"
     style="fill:#00253a" />
  <path
     class="w"
     d="m 98.13,31.59 0.09,0.27 a 10.29,10.29 0 0 1 5.48,-1 l 2.66,-2.11 c -0.06,-0.34 -0.13,-0.68 -0.22,-1 -0.09,-0.32 -0.2,-0.65 -0.31,-1 z"
     id="path548"
     inkscape:connector-curvature="0"
     style="fill:#00253a" />
  <path
     class="w"
     d="m 95.98,14.67 a 12.42,12.42 0 0 1 0.4,1.21 l 1.28,1.21 2,-1.21 a 6.19,6.19 0 0 0 -3.67,-1.21 v 0 z"
     id="path550"
     inkscape:connector-curvature="0"
     style="fill:#00253a" />
  <path
     class="aa"
     d="m 95.98,14.67 a 12.42,12.42 0 0 1 0.4,1.21 l 1.28,1.21 2,-1.21 a 6.19,6.19 0 0 0 -3.67,-1.21 v 0 z"
     id="path552"
     inkscape:connector-curvature="0"
     style="fill:url(#radialGradient3344)" />
  <path
     class="v"
     d="m 21.28,20.9 a 6.23,6.23 0 0 0 5.74,6.2 q -0.26,-3 -0.49,-6 a 13.8,13.8 0 0 1 1.06,-6.4 h -0.08 a 6.23,6.23 0 0 0 -6.23,6.2 z"
     id="path554"
     inkscape:connector-curvature="0"
     style="fill:#0a66a5" />
  <path
     class="ab"
     d="m 21.28,20.9 a 6.23,6.23 0 0 0 5.74,6.2 q -0.26,-3 -0.49,-6 a 13.8,13.8 0 0 1 1.06,-6.4 h -0.08 a 6.23,6.23 0 0 0 -6.23,6.2 z"
     id="path556"
     inkscape:connector-curvature="0"
     style="fill:url(#k)" />
  <path
     class="v"
     d="m 47.64,7.36 a 13,13 0 0 1 2.28,-0.9 83.86,83.86 0 0 0 -10.18,1.85 45.35,45.35 0 0 1 7.9,-0.95 z"
     id="path558"
     inkscape:connector-curvature="0"
     style="fill:#0a66a5" />
  <path
     class="v"
     d="m 43.75,34.61 c 0,0 5.51,3.57 6.49,-1.62 a 14.25,14.25 0 0 1 1.26,-4 H 40.36 v -2.1 c -0.71,1.94 0,4.42 3.39,7.72 z"
     id="path560"
     inkscape:connector-curvature="0"
     style="fill:#0a66a5" />
  <path
     class="v"
     d="m 62.56,12.23 c 1.76,3.75 1.14,5.89 -0.37,7.09 h 21.84 v 5.9 l 4.1,-2.45 A 12,12 0 0 0 85.82,14.9 C 85.38,14.3 82.48,9.84 81.13,7.75 a 53.54,53.54 0 0 0 -5.46,-1 100.28,100.28 0 0 0 -20.85,-0.73 c 2.76,0.29 5.71,1.86 7.74,6.21 z"
     id="path562"
     inkscape:connector-curvature="0"
     style="fill:#0a66a5" />
  <path
     class="v"
     d="m 74.36,71.87 0.76,0.43 A 20.48,20.48 0 0 0 77.41,68 l -0.57,-0.53 a 57.78,57.78 0 0 1 -4.21,-4.65 l -0.88,1.22 -3.39,-5.43 -5.88,3.59 0.51,1.54 0.27,0.16 a 2.26,2.26 0 0 1 1,1.18 2.29,2.29 0 0 1 0.08,1.29 2.51,2.51 0 0 1 -0.09,0.32 2.07,2.07 0 0 1 -0.14,0.31 l 0.91,2.68 c 1.46,0 3,0.1 4.14,0.21 a 12,12 0 0 1 5.2,1.98 z"
     id="path564"
     inkscape:connector-curvature="0"
     style="fill:#0a66a5" />
  <path
     class="v"
     d="m 46.71,73.15 c 0.91,-0.45 1.67,-0.89 2.34,-1.28 a 13.78,13.78 0 0 1 4.08,-1.79 L 50.89,62.66 H 50 v -1 a 1.33,1.33 0 0 0 -1,0 l -0.2,0.1 -5.8,3.55 a 2.36,2.36 0 0 1 -0.91,1 l -5.22,3.19 0.61,1 A 3.6,3.6 0 0 1 38,72.44 c 1.93,0.87 6.57,1.79 8.71,0.71 z"
     id="path566"
     inkscape:connector-curvature="0"
     style="fill:#0a66a5" />
  <path
     class="v"
     d="m 57.19,29.7 0.1,-0.06 0.58,1 0.15,0.2 v 0 a 2.28,2.28 0 0 1 1.94,1.09 l 3.25,5.32 h 0.07 l 0.89,-0.54 a 1.69,1.69 0 0 1 0.42,-0.18 v 0 a 2.42,2.42 0 0 1 0.28,-0.23 l 0.14,-0.1 0.88,-0.54 a 2.22,2.22 0 0 1 0.47,-0.35 2.26,2.26 0 0 1 0.39,-0.3 l 0.88,-0.54 a 1.85,1.85 0 0 1 0.43,-0.19 2.31,2.31 0 0 1 0.31,-0.26 l 0.1,-0.07 0.32,-0.2 c -0.44,-2.58 0.56,-4 1.89,-4.77 h -14 l 0.05,0.06 z"
     id="path568"
     inkscape:connector-curvature="0"
     style="fill:#0a66a5" />
  <path
     class="v"
     d="m 35.16,10.31 a 12.47,12.47 0 0 0 -5.07,6.66 22.94,22.94 0 0 1 5.07,-6.66 z"
     id="path570"
     inkscape:connector-curvature="0"
     style="fill:#0a66a5" />
  <path
     class="w"
     d="m 87.89,68.18 -3.28,4.57 a 5.08,5.08 0 0 0 1.44,-0.69 6.49,6.49 0 0 0 1.84,-3.88 z"
     id="path572"
     inkscape:connector-curvature="0"
     style="fill:#00253a" />
  <path
     class="w"
     d="m 76.67,73.15 c 1.49,0.75 4.18,0.53 6.33,0 l -3.33,-2.28 0.38,-0.54 c -0.89,-0.74 -1.78,-1.54 -2.66,-2.38 a 20.48,20.48 0 0 1 -2.29,4.3 c 0.47,0.33 0.98,0.61 1.57,0.9 z"
     id="path574"
     inkscape:connector-curvature="0"
     style="fill:#00253a" />
  <path
     class="w"
     d="m 88.14,22.77 2.85,-1.7 a 17.7,17.7 0 0 1 2.43,-4.19 C 92.27,12.49 88.25,9.51 81.15,7.75 c 1.34,2.08 4.25,6.55 4.69,7.15 a 12,12 0 0 1 2.3,7.87 z"
     id="path576"
     inkscape:connector-curvature="0"
     style="fill:#00253a" />
  <path
     class="w"
     d="m 68.82,33.8 0.56,-0.34 a 2.23,2.23 0 0 1 1.4,-0.32 2.18,2.18 0 0 1 0.86,0.29 l 2.35,-0.48 a 3.48,3.48 0 0 1 0.09,-0.65 3.3,3.3 0 0 1 0.53,-1.14 3.2,3.2 0 0 1 0.69,-0.69 v 0 l 0.22,-0.16 2.09,-1.24 h -6.95 c -1.3,0.73 -2.3,2.14 -1.84,4.73 z"
     id="path578"
     inkscape:connector-curvature="0"
     style="fill:#00253a" />
  <path
     class="w"
     d="m 91.18,35.94 -8.82,5.51 a 3.16,3.16 0 0 1 -0.78,0.34 3.24,3.24 0 0 1 -1.47,0.08 h -0.2 l -0.26,-0.07 -1.45,1.82 3.76,6.16 -0.63,0.88 c 0.51,0.74 1.22,1.74 2.11,2.85 0.26,0.32 0.52,0.63 0.78,0.94 h 5.5 c 0.8,-5.54 1.58,-11.13 2.27,-16.72 q -0.44,-0.9 -0.81,-1.79 z m -9.16,11.75 a 2.31,2.31 0 1 1 2.34,-2.3 2.31,2.31 0 0 1 -2.34,2.31 z"
     id="path580"
     inkscape:connector-curvature="0"
     style="fill:#00253a" />
  <path
     class="w"
     d="m 89.47,56.19 h -3.66 q 1.24,1.32 2.51,2.44 l 0.09,-0.13 0.66,0.46 z"
     id="path582"
     inkscape:connector-curvature="0"
     style="fill:#00253a" />
  <path
     class="v"
     d="m 58,30.8 v 0 l -0.15,-0.2 z"
     id="path584"
     inkscape:connector-curvature="0"
     style="fill:#0a66a5" />
  <path
     class="x"
     d="m 58,30.8 v 0 l -0.15,-0.2 z"
     id="path586"
     inkscape:connector-curvature="0"
     style="opacity:0.61000001;fill:#bbbdbf" />
  <path
     class="v"
     d="m 39.74,8.31 -0.61,0.14 a 13.24,13.24 0 0 0 -4,1.78 22.94,22.94 0 0 0 -5.07,6.66 10.57,10.57 0 0 0 -0.45,3.91 c 0.38,4.86 0.8,9.85 1.32,14.91 a 20.33,20.33 0 0 1 12.51,0.27 19.15,19.15 0 0 1 4.27,2.13 l 3.87,-2.36 v 0 a 2.28,2.28 0 0 1 1.08,-2.09 l 0.52,-0.32 0.46,-1.51 3.52,-2.15 -0.47,-0.61 -0.05,-0.06 h -5.17 a 14.25,14.25 0 0 0 -1.26,4 c -1,5.19 -6.49,1.62 -6.49,1.62 -3.36,-3.32 -4.07,-5.8 -3.36,-7.74 v -7.58 h 21.88 c 1.5,-1.2 2.12,-3.34 0.37,-7.09 -2,-4.35 -5,-5.9 -7.72,-6.24 q -2.48,0.17 -4.92,0.48 a 13,13 0 0 0 -2.28,0.9 45.35,45.35 0 0 0 -7.95,0.95 z"
     id="path588"
     inkscape:connector-curvature="0"
     style="fill:#0a66a5" />
  <path
     class="x"
     d="m 39.74,8.31 -0.61,0.14 a 13.24,13.24 0 0 0 -4,1.78 22.94,22.94 0 0 0 -5.07,6.66 10.57,10.57 0 0 0 -0.45,3.91 c 0.38,4.86 0.8,9.85 1.32,14.91 a 20.33,20.33 0 0 1 12.51,0.27 19.15,19.15 0 0 1 4.27,2.13 l 3.87,-2.36 v 0 a 2.28,2.28 0 0 1 1.08,-2.09 l 0.52,-0.32 0.46,-1.51 3.52,-2.15 -0.47,-0.61 -0.05,-0.06 h -5.17 a 14.25,14.25 0 0 0 -1.26,4 c -1,5.19 -6.49,1.62 -6.49,1.62 -3.36,-3.32 -4.07,-5.8 -3.36,-7.74 v -7.58 h 21.88 c 1.5,-1.2 2.12,-3.34 0.37,-7.09 -2,-4.35 -5,-5.9 -7.72,-6.24 q -2.48,0.17 -4.92,0.48 a 13,13 0 0 0 -2.28,0.9 45.35,45.35 0 0 0 -7.95,0.95 z"
     id="path590"
     inkscape:connector-curvature="0"
     style="opacity:0.61000001;fill:#bbbdbf" />
  <path
     class="v"
     d="m 81.81,26.55 v -5 H 48.93 a 19.42,19.42 0 0 0 -6.37,2.61 v 2.63 h 38.8 z"
     id="path592"
     inkscape:connector-curvature="0"
     style="fill:#0a66a5" />
  <path
     class="ac"
     d="m 81.81,26.55 v -5 H 48.93 a 19.42,19.42 0 0 0 -6.37,2.61 v 2.63 h 38.8 z"
     id="path594"
     inkscape:connector-curvature="0"
     style="fill:url(#radialGradient3346)" />
  <path
     class="v"
     d="m 42.55,21.55 v 2.61 a 19.42,19.42 0 0 1 6.37,-2.61 z"
     id="path596"
     inkscape:connector-curvature="0"
     style="fill:#0a66a5" />
  <path
     class="x"
     d="m 42.55,21.55 v 2.61 a 19.42,19.42 0 0 1 6.37,-2.61 z"
     id="path598"
     inkscape:connector-curvature="0"
     style="opacity:0.61000001;fill:#bbbdbf" />
  <path
     class="ad"
     d="m 42.55,21.55 v 2.61 a 19.42,19.42 0 0 1 6.37,-2.61 z"
     id="path600"
     inkscape:connector-curvature="0"
     style="fill:url(#m)" />
  <path
     class="v"
     d="m 31.2,37.99 v 0.29 a 10.47,10.47 0 0 1 2.95,2.65 14.81,14.81 0 0 1 2.61,-0.24 c 0.28,0 0.55,0 0.83,0 l 1.85,-1.13 0.52,0.86 a 2.06,2.06 0 0 1 0.85,0.6 2.16,2.16 0 0 1 0.41,0.31 l 0.14,0.08 0.25,0.08 0.43,0.17 3.63,-2.22 A 17.12,17.12 0 0 0 42.78,38.12 18.09,18.09 0 0 0 31.2,37.99 Z"
     id="path602"
     inkscape:connector-curvature="0"
     style="fill:#0a66a5" />
  <path
     class="x"
     d="m 31.2,37.99 v 0.29 a 10.47,10.47 0 0 1 2.95,2.65 14.81,14.81 0 0 1 2.61,-0.24 c 0.28,0 0.55,0 0.83,0 l 1.85,-1.13 0.52,0.86 a 2.06,2.06 0 0 1 0.85,0.6 2.16,2.16 0 0 1 0.41,0.31 l 0.14,0.08 0.25,0.08 0.43,0.17 3.63,-2.22 A 17.12,17.12 0 0 0 42.78,38.12 18.09,18.09 0 0 0 31.2,37.99 Z"
     id="path604"
     inkscape:connector-curvature="0"
     style="opacity:0.61000001;fill:#bbbdbf" />
  <path
     class="ae"
     d="m 31.2,37.99 v 0.29 a 10.47,10.47 0 0 1 2.95,2.65 14.81,14.81 0 0 1 2.61,-0.24 c 0.28,0 0.55,0 0.83,0 l 1.85,-1.13 0.52,0.86 a 2.06,2.06 0 0 1 0.85,0.6 2.16,2.16 0 0 1 0.41,0.31 l 0.14,0.08 0.25,0.08 0.43,0.17 3.63,-2.22 A 17.12,17.12 0 0 0 42.78,38.12 18.09,18.09 0 0 0 31.2,37.99 Z"
     id="path606"
     inkscape:connector-curvature="0"
     style="fill:url(#n)" />
  <path
     d="m 30.91,38.1 0.32,0.21 v -0.29 z"
     id="path608"
     inkscape:connector-curvature="0" />
  <path
     class="af"
     d="m 30.91,38.1 0.32,0.21 v -0.29 z"
     id="path610"
     inkscape:connector-curvature="0"
     style="fill:url(#o)" />
  <path
     class="v"
     d="m 25.36,55.59 c 0.27,0 0.54,0 0.8,0 l 0.25,-0.05 h 0.21 a 7,7 0 0 0 2.57,-0.72 l -1.81,-3 a 2.28,2.28 0 0 1 -0.06,-2.27 v 0 l -0.69,-1.13 z"
     id="path612"
     inkscape:connector-curvature="0"
     style="fill:#0a66a5" />
  <path
     class="v"
     d="m 30.23,46.18 1.55,0.28 0.52,-0.32 0.17,-0.09 a 2.29,2.29 0 0 1 1.5,-0.17 8.28,8.28 0 0 0 -5.75,-6.51 l -1.6,9 z"
     id="path614"
     inkscape:connector-curvature="0"
     style="fill:#0a66a5" />
  <path
     d="m 96.18,32.82 -3.09,1.94 c 0.17,0.43 0.36,0.85 0.56,1.27 a 10.6,10.6 0 0 1 2.62,-3 z"
     id="path616"
     inkscape:connector-curvature="0" />
  <path
     class="ag"
     d="m 96.18,32.82 -3.09,1.94 c 0.17,0.43 0.36,0.85 0.56,1.27 a 10.6,10.6 0 0 1 2.62,-3 z"
     id="path618"
     inkscape:connector-curvature="0"
     style="fill:url(#p)" />
  <path
     d="M 94.76,18.82 95.67,18.28 95.37,18 c -0.21,0.31 -0.41,0.54 -0.61,0.82 z"
     id="path620"
     inkscape:connector-curvature="0" />
  <path
     class="ah"
     d="M 94.76,18.82 95.67,18.28 95.37,18 c -0.21,0.31 -0.41,0.54 -0.61,0.82 z"
     id="path622"
     inkscape:connector-curvature="0"
     style="fill:url(#q)" />
  <circle
     cx="82.020004"
     cy="45.390003"
     r="2.3099999"
     id="circle624" />
  <path
     d="m 130.47,0 -8.87,5.42 0.31,0.5 -6.95,4.24 a 12.24,12.24 0 0 0 -3.88,-1.78 c -5,-1.28 -10.05,0.43 -14.49,1.93 h -0.1 c -0.92,0.31 -1.77,0.62 -2.58,0.92 C 90.65,7.35 84.72,4.78 76.12,3.58 a 97.46,97.46 0 0 0 -37.76,1.88 16.24,16.24 0 0 0 -9,6.13 C 28.3,11.18 27.17,10.77 25.94,10.35 h -0.1 C 21.36,8.81 16.36,7.1 11.36,8.38 c -5,1.28 -8,5.51 -10.68,9.25 L 0,18.57 l 13.85,11.26 -6,15.74 a 1.12,1.12 0 0 0 0.71,1.46 l 15.2,4.78 -0.81,4.5 -0.17,1.09 1.19,0.23 v 0 h 0.26 l 0.13,0.17 a 19.53,19.53 0 0 0 2.48,2.26 l -18,11 a 1.86,1.86 0 0 1 -0.6,0.21 H 8.09 7.83 7.36 A 2.87,2.87 0 0 0 6.73,71.35 H 6.62 l -0.16,0.06 a 2.89,2.89 0 0 0 -1.83,3.54 3,3 0 0 0 0.31,0.7 l 9.5,15.66 a 3.5,3.5 0 0 0 2.69,1.68 h 0.49 0.23 a 3.52,3.52 0 0 0 2.78,-1.93 l 3.11,-6.21 0.39,-0.42 a 2.73,2.73 0 0 0 1.25,0.38 2.79,2.79 0 0 0 2.33,-1.1 l 4,-5.41 0.1,-0.06 a 2.57,2.57 0 0 0 0.87,0.24 2.55,2.55 0 0 0 1.56,-0.36 2.55,2.55 0 0 0 1.22,-2.11 l 0.76,-0.46 a 3.64,3.64 0 0 0 0.37,-0.26 c 0.28,0.13 0.58,0.25 0.91,0.37 -0.45,4.65 -0.82,9.85 -0.79,14.34 a 14.43,14.43 0 0 0 -10.35,13.78 c 0,0 0,0.09 0,0.18 v 1.55 h 27.24 1.55 v -1.55 c 0,0 0,-0.09 0,-0.14 A 14.43,14.43 0 0 0 44.75,89.99 c 0,-4 0.31,-8.87 0.74,-13.29 a 7.89,7.89 0 0 0 2.59,-0.71 c 1,-0.5 1.8,-1 2.51,-1.37 a 10.13,10.13 0 0 1 3.42,-1.5 l 0.16,0.53 a 1.81,1.81 0 0 0 0.18,0.39 v 0 a 1.34,1.34 0 0 0 0.16,0.29 2.13,2.13 0 0 0 0.26,0.28 2.36,2.36 0 0 0 1.59,0.7 h 0.28 l 7.08,-0.58 h 0.15 a 2.43,2.43 0 0 0 1.61,-0.94 l 0.07,-0.09 v 0 a 2.41,2.41 0 0 0 0.26,-0.49 2.29,2.29 0 0 0 0.08,-0.31 c 1.08,0 2.15,0.09 3,0.17 a 9.07,9.07 0 0 1 3.91,1.56 c 0.71,0.41 1.52,0.88 2.51,1.37 a 9.37,9.37 0 0 0 4.07,0.8 c 0.43,4.37 0.77,9.16 0.75,13.19 a 14.43,14.43 0 0 0 -10.44,13.84 c 0,0 0,0.09 0,0.18 v 1.55 h 27.24 1.54 v -1.54 c 0,-0.05 0,-0.1 0,-0.15 A 14.43,14.43 0 0 0 88.1,90.05 c 0,-4.71 -0.39,-10.17 -0.87,-15 a 5,5 0 0 0 0.82,-0.53 c 2.74,-2.29 3.09,-6.23 3.38,-9.4 0.07,-0.75 0.13,-1.46 0.22,-2.1 l 1,-1.44 -0.75,-0.53 c 0.86,-5.82 1.72,-11.72 2.5,-17.64 l 2,-0.18 a 1,1 0 0 0 0.76,-0.05 v 0 l 2.54,-0.22 a 124.67,124.67 0 0 0 2.95,12.35 v 0.09 0 c 0.1,0.36 0.2,0.73 0.3,1.09 l 0.32,1.07 4.61,-1.36 2.67,0.41 0.17,-1.1 v -0.15 l 0.23,-0.07 -0.15,-0.51 a 124.6,124.6 0 0 0 1.25,-13 h 0.07 l 1.1,-0.12 -0.09,-1.21 a 10.5,10.5 0 0 0 -0.25,-1.49 20.3,20.3 0 0 0 1,-13.36 v -0.09 l 8.58,-7 -0.68,-0.94 c -0.68,-1 -1.39,-1.94 -2.14,-2.9 l 5.58,-3.36 0.31,0.5 8.83,-5.4 z m -18.33,33.78 a 17.9,17.9 0 0 1 -0.46,2.14 10.93,10.93 0 0 0 -3,-3.19 14.86,14.86 0 0 0 0.06,-3 14.31,14.31 0 0 0 -0.44,-2.52 v 0 a 13.62,13.62 0 0 0 -0.55,-1.58 12.29,12.29 0 0 0 -4.48,-5.59 l -0.11,-0.08 V 19.9 l 1.65,-3.1 a 15.48,15.48 0 0 1 1.88,1.41 q 0.53,0.46 1,1 a 15.81,15.81 0 0 1 2.34,3.11 16.64,16.64 0 0 1 1.2,2.55 q 0.26,0.71 0.46,1.45 c 0.08,0.29 0.13,0.59 0.2,0.89 a 18.15,18.15 0 0 1 0.25,6.57 z m -8.7,15.74 q -0.83,-3.46 -1.43,-6.84 l 2,-0.17 1.56,-0.14 c 0.16,0.87 0.34,1.76 0.52,2.64 0.59,2.89 1.3,5.81 2.14,8.77 l -0.47,0.14 -2.94,0.87 c -0.46,-1.76 -0.96,-3.48 -1.38,-5.27 z m -18.78,52.86 h -11.8 a 11.29,11.29 0 0 1 22.4,0 z m 0.79,-12.94 c -0.46,0 -0.92,-0.07 -1.39,-0.07 -0.47,0 -0.88,0 -1.32,0.07 h -0.43 c 0,-4 -0.34,-8.64 -0.75,-12.87 l 0.43,-0.06 a 20.5,20.5 0 0 0 2.67,-0.57 l 0.42,-0.12 c 0.43,4.42 0.79,9.34 0.8,13.63 z M 45.66,102.38 H 29.57 a 11.29,11.29 0 0 1 22.4,0 z M 42.13,89.44 c -0.45,0 -0.9,-0.07 -1.35,-0.07 -0.45,0 -0.91,0 -1.35,0.07 L 39,89.49 c 0,-4.15 0.33,-8.91 0.74,-13.25 l 0.42,0.1 a 20.13,20.13 0 0 0 2.69,0.37 h 0.42 c -0.4,4.21 -0.72,8.8 -0.72,12.76 z M 3.02,18.17 c 2.41,-3.35 5,-6.63 8.86,-7.62 a 13,13 0 0 1 3.54,-0.38 c 3.23,0.08 6.5,1.18 9.68,2.26 h 0.1 l 0.5,0.17 a 8.45,8.45 0 0 0 1.52,16.71 c 0,0.56 0.1,1.11 0.15,1.67 L 24.43,35.5 15.05,27.89 6.24,20.74 Z M 54.85,5.98 a 100.28,100.28 0 0 1 20.85,0.73 53.54,53.54 0 0 1 5.46,1 c 7.1,1.76 11.12,4.73 12.27,9.13 A 17.7,17.7 0 0 0 91,21.03 l -2.85,1.7 -4.1,2.45 V 19.31 H 40.36 v 9.71 h 37.33 l -2.12,1.29 -0.22,0.16 v 0 a 3.2,3.2 0 0 0 -0.69,0.69 3.3,3.3 0 0 0 -0.53,1.14 3.48,3.48 0 0 0 -0.09,0.65 l -2.35,0.48 a 2.18,2.18 0 0 0 -0.86,-0.29 2.23,2.23 0 0 0 -1.4,0.32 l -0.56,0.34 -0.32,0.2 -0.1,0.07 a 2.31,2.31 0 0 0 -0.31,0.26 1.85,1.85 0 0 0 -0.43,0.19 l -0.88,0.54 a 2.26,2.26 0 0 0 -0.39,0.3 2.22,2.22 0 0 0 -0.45,0.21 l -0.88,0.54 -0.14,0.1 a 2.42,2.42 0 0 0 -0.28,0.23 v 0 a 1.69,1.69 0 0 0 -0.42,0.18 l -0.89,0.54 h -0.07 l -3.25,-5.32 a 2.28,2.28 0 0 0 -1.94,-1.09 h -0.05 l -0.12,-0.2 -0.58,-1 -0.1,0.06 -3.52,2.15 -0.46,1.51 -0.52,0.32 a 2.28,2.28 0 0 0 -1.08,2.09 v 0 l -3.87,2.36 A 19.15,19.15 0 0 0 43.55,35.91 20.33,20.33 0 0 0 31.04,35.64 c -0.52,-5.06 -0.94,-10 -1.32,-14.91 a 10.57,10.57 0 0 1 0.45,-3.91 12.47,12.47 0 0 1 4.99,-6.51 13.24,13.24 0 0 1 4,-1.78 L 39.74,8.31 A 83.86,83.86 0 0 1 49.92,6.43 q 2.44,-0.27 4.92,-0.45 z m 42.51,6.45 c 4.35,-1.47 8.85,-3 13.22,-1.88 0.28,0.07 0.53,0.18 0.79,0.27 a 2.46,2.46 0 0 0 -0.89,0.24 l -0.21,0.1 -0.39,0.24 a 2.35,2.35 0 0 0 -0.58,0.5 2.6,2.6 0 0 0 -0.76,0.32 l -0.36,0.22 a 2.44,2.44 0 0 0 -0.59,0.51 v 0 a 2.41,2.41 0 0 0 -0.68,0.28 l -0.4,0.24 a 2.31,2.31 0 0 0 -0.57,0.5 2.46,2.46 0 0 0 -0.73,0.3 h -0.06 l -0.15,-0.09 -1,-0.53 -0.42,0.79 a 2.66,2.66 0 0 0 -1.78,0.21 8.42,8.42 0 0 0 -4.67,-2.17 h 0.14 z m 10.5,29.76 2,-0.18 c -0.1,2.25 -0.28,4.63 -0.54,7.15 q -0.89,-3.53 -1.51,-6.98 z M 106.2,27.74 c 0.09,0.33 0.16,0.67 0.22,1 l -2.67,2.16 a 10.29,10.29 0 0 0 -5.48,1 l -0.09,-0.27 7.7,-4.82 c 0.07,0.28 0.17,0.6 0.26,0.93 z m 0.3,3.82 0.11,-0.09 c 0,0 0,0.09 0,0.13 z M 93.7,36.02 C 93.5,35.6 93.31,35.18 93.14,34.75 l 3.09,-1.94 0.08,0.25 a 10.6,10.6 0 0 0 -2.67,2.96 z M 47.36,52.5 46.58,53.3 a 10,10 0 0 1 -5.59,2.86 l -0.12,-0.2 6.82,-4.17 2.33,-1.42 5,-3 5.08,-3.11 0.93,-0.57 0.38,-0.23 v 0 l 2.29,-1.4 5,-3 2.11,-1.29 3.34,5.47 -0.15,0.18 0.17,0.27 3.21,5.25 -1.25,0.76 -0.81,0.5 -3.17,1.94 -4.47,2.73 -3.12,1.9 -4.2,2.4 h -7.74 c -0.1,-0.08 -0.21,-0.14 -0.31,-0.21 h 0.05 l 0.78,-0.8 z M 26.53,21.07 q 0.23,3 0.49,6 a 6.22,6.22 0 0 1 0.49,-12.43 h 0.09 a 13.8,13.8 0 0 0 -1.07,6.43 z m 16,3.09 v -2.61 h 39.25 v 5 l -0.41,0.24 H 42.55 v -2.63 z m 66.15,-7.23 3.09,-1.89 0.19,0.27 v 0 l 0.23,0.38 0.3,0.5 -2.81,1.72 c -0.32,-0.34 -0.64,-0.66 -0.98,-0.97 z m -7.84,2.52 -0.7,1.32 1,0.53 a 9.73,9.73 0 0 1 2.94,2.43 l -3,1.87 -4.3,2.71 -3.17,2 -1.81,1.13 -3.23,2 -2.52,1.58 -3,1.91 -2.3,1.44 -0.71,-1.06 -1.86,-3 -0.66,-1.08 3.78,-2.25 3.52,-2.1 0.4,-0.24 3.14,-1.94 2.07,-1.24 3.12,-1.86 4.12,-2.46 3.14,-1.83 0.21,-0.12 z m -39,51.89 -4.57,0.37 -2.86,-9.49 h 4.42 l 1,3 a 2.28,2.28 0 0 0 0.73,1.05 2.47,2.47 0 0 0 0.06,1.33 z m 14.88,-32.53 -0.38,0.23 0.23,0.38 0.21,0.34 -0.66,0.83 -2.45,-4 2.1,-0.43 1.44,2.36 z m -3,19.79 -0.88,-1.19 -0.36,-0.49 -0.36,0.5 -0.2,0.28 -0.91,-1.48 7,-4.26 a 46.53,46.53 0 0 0 9.57,10.63 l -4.22,5.93 a 51.48,51.48 0 0 1 -9.6,-9.91 z M 53.03,44.45 49.19,46.8 42.32,51 l -0.69,0.42 -0.66,-1.11 -0.23,-0.38 -0.38,0.23 -2.76,1.68 -1.52,-2.5 4.1,-2.5 0.19,-0.12 0.38,-0.23 2.71,-1.65 5.22,-3.19 3.48,-2.12 1.46,-0.89 1.52,2.5 -0.31,0.19 -0.36,0.22 -0.38,0.23 0.23,0.38 0.65,1.15 z m 3.66,-9.1 0.38,-0.23 0.59,-0.36 2.8,4.58 -2.1,1.27 -0.4,-0.66 -2,-3.26 -0.4,-0.66 0.47,-0.28 0.15,-0.09 V 35.5 l 0.18,-0.59 v 0.06 z M 31,51.04 l 0.59,-0.36 0.38,-0.23 -0.23,-0.38 v -0.06 l 0.6,0.1 h 0.17 l 0.14,-0.09 0.21,-0.13 2.8,4.58 -1.3,0.84 c -0.38,-0.16 -0.74,-0.35 -1.1,-0.55 z m 66.66,-34 -1.3,-1.16 a 12.42,12.42 0 0 0 -0.4,-1.21 v 0 a 6.19,6.19 0 0 1 3.67,1.21 z m -2.29,0.91 0.3,0.28 -0.91,0.54 c 0.2,-0.23 0.4,-0.46 0.6,-0.77 z m -53.38,23.7 -0.43,-0.17 -0.2,-0.07 -0.11,-0.1 A 2.16,2.16 0 0 0 40.84,41 2.06,2.06 0 0 0 39.99,40.4 l -0.52,-0.86 -1.85,1.13 c -0.28,0 -0.55,0 -0.83,0 a 14.81,14.81 0 0 0 -2.61,0.24 10.47,10.47 0 0 0 -2.95,-2.6 l -0.32,-0.18 0.29,-0.1 a 18.09,18.09 0 0 1 11.54,0.12 17.12,17.12 0 0 1 2.89,1.32 z m -16.37,-3.86 2.08,-3.2 c 0.08,0.78 0.15,1.56 0.23,2.34 h -0.1 -0.18 l -1.22,-0.2 -1.3,7.3 -7.45,-2.33 2.56,-6.68 4.7,3.81 z m 6.81,30.32 -0.37,0.2 0.23,0.38 2.21,3.62 a 0.12,0.12 0 0 1 0,0.17 l -5,3.07 h -0.07 l -0.05,0.07 -2.02,2.69 -1.83,2.45 A 2.21,2.21 0 0 0 24.36,80.31 H 24.12 A 2.32,2.32 0 0 0 22.52,81 l -1.45,1.54 a 2.19,2.19 0 0 0 -0.37,0.53 l -0.85,1.7 -2.34,4.68 -2.89,-4.73 -6,-9.9 a 5.35,5.35 0 0 0 2.11,-0.74 l 5,-3.06 4.53,-2.77 3.6,-2.2 0.13,-0.08 6.25,-3.82 a 20.39,20.39 0 0 0 8.41,2.16 z m -4.2,-28.74 a 8.28,8.28 0 0 1 5.75,6.51 2.29,2.29 0 0 0 -1.5,0.17 l -0.17,0.09 -0.52,0.32 -1.55,-0.28 -3.6,2.2 z m 56.37,33.38 3.28,-4.57 a 6.49,6.49 0 0 1 -1.84,3.88 5.08,5.08 0 0 1 -1.44,0.69 z m 3.76,-14.24 -0.09,0.13 Q 87,57.52 85.76,56.2 h 3.66 l -0.41,2.78 z m 1.32,-4.1 h -5.5 C 83.92,54.1 83.66,53.79 83.4,53.47 82.51,52.36 81.8,51.36 81.29,50.62 l 0.63,-0.88 -3.76,-6.16 1.45,-1.82 0.26,0.07 h 0.2 a 3.24,3.24 0 0 0 1.47,-0.08 3.16,3.16 0 0 0 0.78,-0.34 l 8.8,-5.51 q 0.37,0.89 0.82,1.74 c -0.58,5.67 -1.41,11.22 -2.21,16.77 z M 18.42,33.54 15.18,42.01 a 1.12,1.12 0 0 0 0.71,1.46 l 8.86,2.77 -0.59,3.34 -13.8,-4.27 5.34,-14 z m 8.21,14.88 0.73,1.13 v 0 a 2.28,2.28 0 0 0 0.06,2.27 l 1.81,3 a 7,7 0 0 1 -2.57,0.72 h -0.21 l -0.25,0.05 c -0.26,0 -0.53,0 -0.8,0 z m 0.73,9.25 a 8.72,8.72 0 0 0 3.91,-1.52 14.68,14.68 0 0 0 7.73,2.39 13.28,13.28 0 0 0 3.26,-0.35 v 0 a 12.25,12.25 0 0 0 3.46,-1.39 12,12 0 0 0 1.66,-1.18 l 0.56,0.54 1.48,1.44 0.49,0.48 v 0 a 16,16 0 0 1 -11,4 c -0.26,0 -0.52,0 -0.78,0 a 18.17,18.17 0 0 1 -5.76,-1.3 17.9,17.9 0 0 1 -3.55,-1.94 17.53,17.53 0 0 1 -1.43,-1.11 z m 10.65,14.78 a 3.6,3.6 0 0 0 -0.52,-1.94 l -0.61,-1 5.22,-3.19 a 2.36,2.36 0 0 0 0.91,-1 l 5.82,-3.56 0.2,-0.1 a 1.33,1.33 0 0 1 1,0 v 1 h 0.89 l 2.24,7.42 a 13.78,13.78 0 0 0 -4.08,1.79 c -0.67,0.39 -1.44,0.83 -2.34,1.28 -2.17,1.08 -6.81,0.16 -8.73,-0.7 z m 27,-2.76 -0.91,-2.68 a 2.07,2.07 0 0 0 0.14,-0.31 2.51,2.51 0 0 0 0.09,-0.32 2.29,2.29 0 0 0 -0.08,-1.29 2.26,2.26 0 0 0 -1,-1.18 l -0.27,-0.16 -0.51,-1.54 5.89,-3.6 3.32,5.43 0.88,-1.22 a 57.78,57.78 0 0 0 4.21,4.65 L 77.34,68 c 0.88,0.84 1.76,1.64 2.66,2.38 l -0.38,0.54 3.33,2.28 c -2.15,0.49 -4.83,0.7 -6.33,0 -0.59,-0.29 -1.1,-0.58 -1.58,-0.85 l -0.76,-0.43 a 12,12 0 0 0 -5.16,-2 c -1.08,-0.13 -2.64,-0.19 -4.1,-0.23 z M 94.36,41.11 a 8.31,8.31 0 0 1 7.58,-8 q 0.36,0 0.72,0 a 8.32,8.32 0 0 1 8.12,6.59 l -6.34,0.55 z m 17.39,-20.38 5.56,-3.42 -0.54,-0.88 0.93,-0.57 c 0.58,0.73 1.15,1.49 1.7,2.26 l -6.32,5.19 a 18.73,18.73 0 0 0 -1.29,-2.58 z"
     id="path626"
     inkscape:connector-curvature="0" />
  <path
     class="d"
     d="m 20.13,68.24 c -0.05,5.51 -0.19,11 -0.28,16.52 l 0.85,-1.7 a 2.19,2.19 0 0 1 0.37,-0.53 l 1.45,-1.54 a 2.18,2.18 0 0 1 1,-0.59 c 0.1,-4.79 0.2,-9.58 0.22,-14.36 z"
     id="path628"
     inkscape:connector-curvature="0"
     style="fill:#ffffff" />
  <path
     class="d"
     d="m 14.23,74.18 a 21.29,21.29 0 0 0 1.36,-3.17 l -5,3.06 a 5.35,5.35 0 0 1 -2.11,0.74 l 6,9.9 c 0.09,-3.5 -0.12,-7.02 -0.25,-10.53 z"
     id="path630"
     inkscape:connector-curvature="0"
     style="fill:#ffffff" />
  <path
     class="d"
     d="m 97.71,21.14 a 9.71,9.71 0 0 0 3.4,4.45 l 3,-1.87 a 9.73,9.73 0 0 0 -2.96,-2.41 l -1,-0.53 0.7,-1.32 -0.04,-0.15 z"
     id="path632"
     inkscape:connector-curvature="0"
     style="fill:#ffffff" />
  <path
     class="d"
     d="m 60.64,67.65 a 2.47,2.47 0 0 1 -0.06,-1.33 2.28,2.28 0 0 1 -0.73,-1.05 l -1,-3 h -4.42 l 2.86,9.49 4.57,-0.37 z"
     id="path634"
     inkscape:connector-curvature="0"
     style="fill:#ffffff" />
  <path
     class="d"
     d="m 52.31,58.95 c 0.1,0.07 0.21,0.13 0.31,0.21 h 7.48 a 12.36,12.36 0 0 0 -7.26,-4.86 6.94,6.94 0 0 0 -3,-2 10.19,10.19 0 0 0 -2.15,-0.5 l -6.82,4.17 0.12,0.2 a 10,10 0 0 0 5.59,-2.86 l 0.78,-0.8 5.76,5.6 -0.78,0.8 z"
     id="path636"
     inkscape:connector-curvature="0"
     style="fill:#ffffff" />
  <path
     class="d"
     d="m 75.57,48.61 0.48,1 1.25,-0.76 -3.21,-5.25 -0.16,-0.29 0.15,-0.18 -3.34,-5.47 -2.11,1.29 c 3.18,2.36 5.16,6.19 6.94,9.66 z"
     id="path638"
     inkscape:connector-curvature="0"
     style="fill:#ffffff" />
  <path
     class="d"
     d="m 83.36,68.52 4.27,-5.94 A 46.53,46.53 0 0 1 78.06,51.95 l -7,4.26 0.91,1.48 0.2,-0.28 0.36,-0.5 0.36,0.49 0.88,1.19 a 51.48,51.48 0 0 0 9.59,9.93 z"
     id="path640"
     inkscape:connector-curvature="0"
     style="fill:#ffffff" />
  <path
     class="d"
     d="m 84.83,28.83 -3.52,2.1 a 17.72,17.72 0 0 0 1.69,6 l 3,-1.91 a 14.93,14.93 0 0 1 -1.17,-6.19 z"
     id="path642"
     inkscape:connector-curvature="0"
     style="fill:#ffffff" />
  <path
     class="d"
     d="m 54.07,41.8 0.38,-0.23 0.36,-0.22 c -0.87,-0.63 -1.76,-1.23 -2.68,-1.79 l -3.48,2.12 0.08,0.05 a 32.09,32.09 0 0 1 4.29,2.72 l 1.95,-1.14 -0.66,-1.08 z"
     id="path644"
     inkscape:connector-curvature="0"
     style="fill:#ffffff" />
  <polygon
     class="d"
     points="114.68,89.44 114.21,89.72 114.61,90.38 116.61,93.64 117.01,94.3 119.09,93.03 116.29,88.45 115.7,88.81 115.32,89.04 115.09,88.66 115.05,88.6 114.87,89.18 114.82,89.35 "
     id="polygon646"
     style="fill:#ffffff"
     transform="translate(-58.64,-53.69)" />
  <path
     class="d"
     d="m 30.1,62.15 -6.25,3.82 a 39.17,39.17 0 0 0 3.51,12.34 l 2,-2.66 0.05,-0.07 h 0.07 l 5,-3.07 a 0.12,0.12 0 0 0 0,-0.17 l -2.21,-3.61 -0.21,-0.42 0.38,-0.23 6.21,-3.8 A 20.39,20.39 0 0 1 30.1,62.15 Z m -1.74,8.87 a 28.68,28.68 0 0 1 -1.11,-7 c 2.43,0.94 1.55,4.67 1.11,7 z"
     id="path648"
     inkscape:connector-curvature="0"
     style="fill:#ffffff" />
  <path
     class="d"
     d="m 44.12,47.52 a 6.79,6.79 0 0 1 -0.68,-2.65 l -2.71,1.65 -0.38,0.23 -0.19,0.12 a 8.93,8.93 0 0 0 2,4 1.32,1.32 0 0 0 0.2,0.16 l 6.87,-4.2 a 24.66,24.66 0 0 0 -5.11,0.69 z"
     id="path650"
     inkscape:connector-curvature="0"
     style="fill:#ffffff" />
  <path
     class="d"
     d="m 93.59,23.6 -3.12,1.86 a 22.09,22.09 0 0 0 3.13,4.85 l 3.17,-2 A 18.94,18.94 0 0 1 93.59,23.6 Z"
     id="path652"
     inkscape:connector-curvature="0"
     style="fill:#ffffff" />
  <path
     class="d"
     d="m 88.36,26.7 -3.17,1.89 a 15.22,15.22 0 0 0 3.34,4.86 l 3.23,-2 a 12.29,12.29 0 0 1 -3.4,-4.75 z"
     id="path654"
     inkscape:connector-curvature="0"
     style="fill:#ffffff" />
  <path
     class="d"
     d="m 72.07,52.01 3.17,-1.94 a 63.47,63.47 0 0 0 -11.59,-8.1 l -2.29,1.41 v 0 l -0.38,0.23 -0.93,0.57 c 4.48,1.84 8.31,4.76 12.02,7.83 z"
     id="path656"
     inkscape:connector-curvature="0"
     style="fill:#ffffff" />
  <path
     class="d"
     d="m 62.19,54.68 c 0.8,0.62 1.56,1.28 2.29,2 l 3.12,-1.9 A 35.18,35.18 0 0 0 63.49,51.24 23,23 0 0 0 55,47.37 l -5,3 a 19.59,19.59 0 0 1 12.19,4.31 z"
     id="path658"
     inkscape:connector-curvature="0"
     style="fill:#ffffff" />
  <path
     class="d"
     d="m 34.36,55.31 1.27,-0.77 -2.8,-4.58 -0.21,0.13 -0.14,0.09 h -0.17 l -0.6,-0.1 v 0.06 l 0.23,0.38 -0.38,0.23 -0.59,0.36 2.25,3.68 c 0.39,0.14 0.76,0.33 1.14,0.52 z"
     id="path660"
     inkscape:connector-curvature="0"
     style="fill:#ffffff" />
  <path
     class="ai"
     d="m 52.84,54.31 a 12.36,12.36 0 0 1 7.26,4.86 h 0.26 l 4.13,-2.52 C 63.76,55.96 63,55.3 62.2,54.65 A 19.59,19.59 0 0 0 50.05,50.33 l -2.33,1.42 a 10.19,10.19 0 0 1 2.15,0.5 6.94,6.94 0 0 1 2.97,2.06 z"
     id="path662"
     inkscape:connector-curvature="0"
     style="fill:#414042" />
  <path
     class="ai"
     d="m 40.17,46.87 -4.1,2.5 1.52,2.5 2.77,-1.68 0.38,-0.23 0.23,0.35 0.66,1.08 0.69,-0.42 a 1.32,1.32 0 0 1 -0.2,-0.16 8.93,8.93 0 0 1 -1.95,-3.94 z"
     id="path664"
     inkscape:connector-curvature="0"
     style="fill:#414042" />
  <path
     class="ai"
     d="m 77.53,33.18 0.66,1.08 1.86,3 0.65,1.07 2.3,-1.44 a 17.72,17.72 0 0 1 -1.69,-6 z"
     id="path666"
     inkscape:connector-curvature="0"
     style="fill:#414042" />
  <polygon
     class="ai"
     points="135.42,93.46 135.21,93.12 134.98,92.73 135.36,92.5 135.84,92.2 134.4,89.85 132.31,90.28 134.75,94.29 "
     id="polygon668"
     style="fill:#414042"
     transform="translate(-58.64,-53.69)" />
  <path
     class="ai"
     d="m 63.49,51.21 a 35.18,35.18 0 0 1 4.11,3.54 l 4.47,-2.73 c -3.7,-3.08 -7.54,-6 -12,-7.78 L 55,47.31 a 23,23 0 0 1 8.49,3.9 z"
     id="path670"
     inkscape:connector-curvature="0"
     style="fill:#414042" />
  <path
     class="ai"
     d="m 55.12,41.16 -1.52,-2.5 -1.46,0.89 c 0.92,0.56 1.81,1.16 2.68,1.79 z"
     id="path672"
     inkscape:connector-curvature="0"
     style="fill:#414042" />
  <path
     class="ai"
     d="m 48.74,41.73 -0.08,-0.05 -5.22,3.19 a 6.79,6.79 0 0 0 0.68,2.65 24.66,24.66 0 0 1 5.07,-0.72 l 3.84,-2.35 a 32.09,32.09 0 0 0 -4.29,-2.72 z"
     id="path674"
     inkscape:connector-curvature="0"
     style="fill:#414042" />
  <path
     class="ai"
     d="m 75.24,50.08 0.81,-0.5 -0.48,-1 c -1.78,-3.47 -3.76,-7.27 -6.94,-9.67 l -5,3 a 63.47,63.47 0 0 1 11.61,8.17 z"
     id="path676"
     inkscape:connector-curvature="0"
     style="fill:#414042" />
  <path
     class="ai"
     d="m 97.71,21.14 -4.12,2.46 a 18.94,18.94 0 0 0 3.19,4.7 l 4.32,-2.71 a 9.71,9.71 0 0 1 -3.39,-4.45 z"
     id="path678"
     inkscape:connector-curvature="0"
     style="fill:#414042" />
  <path
     class="ai"
     d="m 112.49,16.19 -0.3,-0.5 -0.23,-0.38 v 0 l -0.16,-0.27 -3.09,1.89 c 0.34,0.31 0.66,0.64 1,1 z"
     id="path680"
     inkscape:connector-curvature="0"
     style="fill:#414042" />
  <path
     class="ai"
     d="m 100.87,19.45 0.15,-0.28 -0.21,0.12 z"
     id="path682"
     inkscape:connector-curvature="0"
     style="fill:#414042" />
  <path
     class="ai"
     d="m 90.47,25.46 -2.11,1.24 a 12.29,12.29 0 0 0 3.4,4.72 l 1.84,-1.11 a 22.09,22.09 0 0 1 -3.13,-4.85 z"
     id="path684"
     inkscape:connector-curvature="0"
     style="fill:#414042" />
  <path
     class="ai"
     d="m 85.23,28.59 -0.4,0.24 a 14.93,14.93 0 0 0 1.22,6.2 l 2.52,-1.58 a 15.22,15.22 0 0 1 -3.34,-4.86 z"
     id="path686"
     inkscape:connector-curvature="0"
     style="fill:#414042" />
  <path
     class="ai"
     d="m 15.6,71.01 a 21.29,21.29 0 0 1 -1.36,3.17 c 0.17,3.52 0.34,7 0.3,10.53 l 2.89,4.73 2.34,-4.68 c 0.09,-5.51 0.23,-11 0.28,-16.52 z"
     id="path688"
     inkscape:connector-curvature="0"
     style="fill:#414042" />
  <path
     class="ai"
     d="m 23.72,66.04 c 0,4.79 -0.13,9.58 -0.22,14.36 a 2.18,2.18 0 0 1 0.62,-0.1 h 0.24 a 2.21,2.21 0 0 1 1.14,0.47 l 1.86,-2.46 A 39.17,39.17 0 0 1 23.89,65.93 Z"
     id="path690"
     inkscape:connector-curvature="0"
     style="fill:#414042" />
  <path
     class="ai"
     d="m 27.3,64.06 a 28.68,28.68 0 0 0 1.11,7 c 0.39,-2.37 1.27,-6.1 -1.11,-7 z"
     id="path692"
     inkscape:connector-curvature="0"
     style="fill:#414042" />
  <path
     class="aj"
     d="m 30.81,57.61 v -0.24 l -0.36,-0.6 a 10.5,10.5 0 0 1 -3,0.93 17.53,17.53 0 0 0 1.43,1.11 z"
     id="path694"
     inkscape:connector-curvature="0"
     style="fill:url(#r)" />
  <path
     d="m 30.76,57.37 v 0.24 l -2,1.2 a 17.9,17.9 0 0 0 3.6,1.94 l 3.62,-2.21 0.63,1 0.23,0.38 0.38,-0.23 1.46,-0.89 0.26,-0.16 1.15,1.88 -0.26,0.16 -1.46,0.89 -0.38,0.23 0.14,0.22 c 0.26,0 0.52,0 0.78,0 a 16,16 0 0 0 11,-4 v 0 c -0.13,0 -0.26,0 -0.39,0 a 4.86,4.86 0 0 0 -2.53,0.71 v 0 l -3,1.86 -0.15,0.09 -0.63,-1 -0.91,-1.49 a 13.28,13.28 0 0 1 -3.26,0.35 14.68,14.68 0 0 1 -7.73,-2.39 8.72,8.72 0 0 1 -3.95,1.52 h 0.05 a 10.5,10.5 0 0 0 3,-0.93 z"
     id="path696"
     inkscape:connector-curvature="0" />
  <path
     class="ak"
     d="m 30.76,57.37 v 0.24 l -2,1.2 a 17.9,17.9 0 0 0 3.6,1.94 l 3.62,-2.21 0.63,1 0.23,0.38 0.38,-0.23 1.46,-0.89 0.26,-0.16 1.15,1.88 -0.26,0.16 -1.46,0.89 -0.38,0.23 0.14,0.22 c 0.26,0 0.52,0 0.78,0 a 16,16 0 0 0 11,-4 v 0 c -0.13,0 -0.26,0 -0.39,0 a 4.86,4.86 0 0 0 -2.53,0.71 v 0 l -3,1.86 -0.15,0.09 -0.63,-1 -0.91,-1.49 a 13.28,13.28 0 0 1 -3.26,0.35 14.68,14.68 0 0 1 -7.73,-2.39 8.72,8.72 0 0 1 -3.95,1.52 h 0.05 a 10.5,10.5 0 0 0 3,-0.93 z"
     id="path698"
     inkscape:connector-curvature="0"
     style="fill:url(#s)" />
  <path
     class="d"
     d="m 46.99,58.76 v 0 a 22.05,22.05 0 0 0 -1.27,-2 12.25,12.25 0 0 1 -3.46,1.39 18.86,18.86 0 0 1 1.67,2.43 z"
     id="path700"
     inkscape:connector-curvature="0"
     style="fill:#ffffff" />
  <path
     class="al"
     d="m 46.99,58.76 v 0 a 22.05,22.05 0 0 0 -1.27,-2 12.25,12.25 0 0 1 -3.46,1.39 18.86,18.86 0 0 1 1.67,2.43 z"
     id="path702"
     inkscape:connector-curvature="0"
     style="fill:url(#t)" />
  <path
     class="d"
     d="m 38.36,61.59 1.46,-0.89 0.26,-0.16 -1.15,-1.88 -0.26,0.16 -1.46,0.89 -0.38,0.23 -0.23,-0.38 -0.63,-1 -3.61,2.19 a 18.17,18.17 0 0 0 5.76,1.3 l -0.14,-0.22 z"
     id="path704"
     inkscape:connector-curvature="0"
     style="fill:#ffffff" />
  <path
     class="am"
     d="m 38.36,61.59 1.46,-0.89 0.26,-0.16 -1.15,-1.88 -0.26,0.16 -1.46,0.89 -0.38,0.23 -0.23,-0.38 -0.63,-1 -3.61,2.19 a 18.17,18.17 0 0 0 5.76,1.3 l -0.14,-0.22 z"
     id="path706"
     inkscape:connector-curvature="0"
     style="fill:url(#u)" />
  <path
     class="d"
     d="m 49.42,57.59 -1.48,-1.44 a 1.57,1.57 0 0 0 1.48,1.44 z"
     id="path708"
     inkscape:connector-curvature="0"
     style="fill:#ffffff" />
  <path
     class="an"
     d="m 49.42,57.59 -1.48,-1.44 a 1.57,1.57 0 0 0 1.48,1.44 z"
     id="path710"
     inkscape:connector-curvature="0"
     style="fill:url(#v)" />
  <path
     class="ai"
     d="m 43.8,60.71 0.15,-0.09 a 18.86,18.86 0 0 0 -1.67,-2.43 v 0 l 0.91,1.49 z"
     id="path712"
     inkscape:connector-curvature="0"
     style="fill:#414042" />
  <path
     class="ao"
     d="m 43.8,60.71 0.15,-0.09 a 18.86,18.86 0 0 0 -1.67,-2.43 v 0 l 0.91,1.49 z"
     id="path714"
     inkscape:connector-curvature="0"
     style="fill:url(#w)" />
  <path
     class="ai"
     d="m 49.53,58.04 c 0.13,0 0.26,0 0.39,0 l -0.49,-0.48 a 1.57,1.57 0 0 1 -1.48,-1.44 l -0.56,-0.54 a 12,12 0 0 1 -1.66,1.18 22.05,22.05 0 0 1 1.27,2 4.86,4.86 0 0 1 2.53,-0.72 z"
     id="path716"
     inkscape:connector-curvature="0"
     style="fill:#414042" />
  <path
     class="ap"
     d="m 49.53,58.04 c 0.13,0 0.26,0 0.39,0 l -0.49,-0.48 a 1.57,1.57 0 0 1 -1.48,-1.44 l -0.56,-0.54 a 12,12 0 0 1 -1.66,1.18 22.05,22.05 0 0 1 1.27,2 4.86,4.86 0 0 1 2.53,-0.72 z"
     id="path718"
     inkscape:connector-curvature="0"
     style="fill:url(#x)" />
  <path
     class="aq"
     d="m 102.01,42.69 q 0.6,3.38 1.43,6.84 c 0.28,-2.47 0.47,-4.81 0.58,-7 z"
     id="path720"
     inkscape:connector-curvature="0"
     style="fill:url(#y)" />
  <path
     class="ar"
     d="m 107.76,53.92 0.47,-0.14 c -0.84,-3 -1.55,-5.88 -2.14,-8.77 -0.19,2.67 -0.48,5.5 -0.91,8.51 z"
     id="path722"
     inkscape:connector-curvature="0"
     style="fill:url(#z)" />
  <path
     class="as"
     d="m 107.76,53.92 0.47,-0.14 c -0.84,-3 -1.55,-5.88 -2.14,-8.77 -0.19,2.67 -0.48,5.5 -0.91,8.51 z"
     id="path724"
     inkscape:connector-curvature="0"
     style="fill:url(#aa)" />
  <path
     d="m 107.76,53.92 -2.58,-0.39 c 0.43,-3 0.72,-5.84 0.91,-8.51 -0.18,-0.88 -0.36,-1.76 -0.52,-2.64 l -1.56,0.14 c -0.11,2.2 -0.3,4.54 -0.58,7 0.42,1.75 0.87,3.5 1.37,5.27 z"
     id="path726"
     inkscape:connector-curvature="0" />
  <path
     class="at"
     d="m 107.76,53.92 -2.58,-0.39 c 0.43,-3 0.72,-5.84 0.91,-8.51 -0.18,-0.88 -0.36,-1.76 -0.52,-2.64 l -1.56,0.14 c -0.11,2.2 -0.3,4.54 -0.58,7 0.42,1.75 0.87,3.5 1.37,5.27 z"
     id="path728"
     inkscape:connector-curvature="0"
     style="fill:url(#ab)" />
  <path
     class="au"
     d="m 112.14,33.78 a 18.15,18.15 0 0 0 -0.2,-6.68 l -0.24,0.2 c 0.2,1.95 0.36,4.11 0.44,6.48 z"
     id="path730"
     inkscape:connector-curvature="0"
     style="fill:url(#ac)" />
  <path
     class="av"
     d="m 108.74,29.69 a 14.86,14.86 0 0 1 -0.06,3 10.63,10.63 0 0 1 1.24,1 c -0.06,-1.71 -0.16,-3.29 -0.29,-4.77 z"
     id="path732"
     inkscape:connector-curvature="0"
     style="fill:url(#ad)" />
  <path
     class="aw"
     d="m 108.74,29.69 a 14.86,14.86 0 0 1 -0.06,3 10.63,10.63 0 0 1 1.24,1 c -0.06,-1.71 -0.16,-3.29 -0.29,-4.77 z"
     id="path734"
     inkscape:connector-curvature="0"
     style="fill:url(#ae)" />
  <path
     class="w"
     d="m 111.27,24.76 a 16.64,16.64 0 0 0 -1.2,-2.55 2.21,2.21 0 0 1 -0.77,1.13 c 0,0.09 0,0.17 0,0.26 a 2.06,2.06 0 0 1 -0.07,0.26 v 0 a 2.69,2.69 0 0 1 -0.28,0.64 v 0 a 1.83,1.83 0 0 1 -0.15,0.2 3,3 0 0 1 -0.29,0.31 2.63,2.63 0 0 1 -0.36,0.28 l -0.31,0.19 a 13.62,13.62 0 0 1 0.55,1.58 v 0 z"
     id="path736"
     inkscape:connector-curvature="0"
     style="fill:#00253a" />
  <path
     class="ax"
     d="m 111.27,24.76 a 16.64,16.64 0 0 0 -1.2,-2.55 2.21,2.21 0 0 1 -0.77,1.13 c 0,0.09 0,0.17 0,0.26 a 2.06,2.06 0 0 1 -0.07,0.26 v 0 a 2.69,2.69 0 0 1 -0.28,0.64 v 0 a 1.83,1.83 0 0 1 -0.15,0.2 3,3 0 0 1 -0.29,0.31 2.63,2.63 0 0 1 -0.36,0.28 l -0.31,0.19 a 13.62,13.62 0 0 1 0.55,1.58 v 0 z"
     id="path738"
     inkscape:connector-curvature="0"
     style="fill:url(#af)" />
  <path
     d="m 111.27,24.76 -3,2.41 a 14.31,14.31 0 0 1 0.44,2.52 l 0.88,-0.71 c 0.13,1.48 0.23,3.06 0.29,4.77 a 10.57,10.57 0 0 1 1.76,2.17 17.9,17.9 0 0 0 0.46,-2.14 c -0.08,-2.37 -0.24,-4.53 -0.44,-6.48 l 0.24,-0.2 c -0.06,-0.3 -0.12,-0.59 -0.2,-0.89 q -0.16,-0.74 -0.43,-1.45 z"
     id="path740"
     inkscape:connector-curvature="0" />
  <path
     class="ay"
     d="m 111.27,24.76 -3,2.41 a 14.31,14.31 0 0 1 0.44,2.52 l 0.88,-0.71 c 0.13,1.48 0.23,3.06 0.29,4.77 a 10.57,10.57 0 0 1 1.76,2.17 17.9,17.9 0 0 0 0.46,-2.14 c -0.08,-2.37 -0.24,-4.53 -0.44,-6.48 l 0.24,-0.2 c -0.06,-0.3 -0.12,-0.59 -0.2,-0.89 q -0.16,-0.74 -0.43,-1.45 z"
     id="path742"
     inkscape:connector-curvature="0"
     style="fill:url(#ag)" />
  <path
     d="m 108.43,25.1 a 3,3 0 0 0 0.29,-0.31 1.83,1.83 0 0 0 0.15,-0.2 v 0 a 2.69,2.69 0 0 0 0.28,-0.64 v 0 a 2.06,2.06 0 0 0 0.07,-0.26 c 0,-0.09 0,-0.17 0,-0.26 a 2.21,2.21 0 0 0 0.77,-1.13 15.81,15.81 0 0 0 -2.34,-3.11 l -1,0.63 -0.7,-1.14 0.71,-0.44 a 15.48,15.48 0 0 0 -1.88,-1.41 l -1.65,3.1 0.08,0.14 a 12.29,12.29 0 0 1 4.48,5.59 L 108,25.47 a 2.63,2.63 0 0 0 0.43,-0.37 z"
     id="path744"
     inkscape:connector-curvature="0" />
  <path
     class="az"
     d="m 108.43,25.1 a 3,3 0 0 0 0.29,-0.31 1.83,1.83 0 0 0 0.15,-0.2 v 0 a 2.69,2.69 0 0 0 0.28,-0.64 v 0 a 2.06,2.06 0 0 0 0.07,-0.26 c 0,-0.09 0,-0.17 0,-0.26 a 2.21,2.21 0 0 0 0.77,-1.13 15.81,15.81 0 0 0 -2.34,-3.11 l -1,0.63 -0.7,-1.14 0.71,-0.44 a 15.48,15.48 0 0 0 -1.88,-1.41 l -1.65,3.1 0.08,0.14 a 12.29,12.29 0 0 1 4.48,5.59 L 108,25.47 a 2.63,2.63 0 0 0 0.43,-0.37 z"
     id="path746"
     inkscape:connector-curvature="0"
     style="fill:url(#ah)" />
  <path
     class="ai"
     d="m 106.7,19.73 1,-0.63 q -0.48,-0.5 -1,-1 l -0.71,0.44 z"
     id="path748"
     inkscape:connector-curvature="0"
     style="fill:#414042" />
  <path
     class="ba"
     d="m 106.7,19.73 1,-0.63 q -0.48,-0.5 -1,-1 l -0.71,0.44 z"
     id="path750"
     inkscape:connector-curvature="0"
     style="fill:url(#ai)" />
  <path
     class="ai"
     d="m 103.16,19.9 0.11,0.08 -0.08,-0.14 z"
     id="path752"
     inkscape:connector-curvature="0"
     style="fill:#414042" />
  <path
     class="bb"
     d="m 103.16,19.9 0.11,0.08 -0.08,-0.14 z"
     id="path754"
     inkscape:connector-curvature="0"
     style="fill:url(#aj)" />
  <path
     class="v"
     d="m 104.47,40.23 a 7.22,7.22 0 0 0 0.37,-3 c -0.22,-2 -2.86,-4.13 -2.86,-4.13 a 8.31,8.31 0 0 0 -7.58,8 z"
     id="path756"
     inkscape:connector-curvature="0"
     style="fill:#0a66a5" />
  <path
     class="w"
     d="m 104.84,37.25 a 7.22,7.22 0 0 1 -0.37,3 l 6.34,-0.55 a 8.32,8.32 0 0 0 -8.12,-6.59 q -0.36,0 -0.72,0 c 0,0 2.65,2.13 2.87,4.14 z"
     id="path758"
     inkscape:connector-curvature="0"
     style="fill:#00253a" />
</svg>
