<?xml version="1.0" encoding="UTF-8" standalone="no"?>
<!-- Created with Inkscape (http://www.inkscape.org/) -->

<svg
   xmlns:dc="http://purl.org/dc/elements/1.1/"
   xmlns:cc="http://creativecommons.org/ns#"
   xmlns:rdf="http://www.w3.org/1999/02/22-rdf-syntax-ns#"
   xmlns:svg="http://www.w3.org/2000/svg"
   xmlns="http://www.w3.org/2000/svg"
   xmlns:sodipodi="http://sodipodi.sourceforge.net/DTD/sodipodi-0.dtd"
   xmlns:inkscape="http://www.inkscape.org/namespaces/inkscape"
   width="29mm"
   height="29mm"
   viewBox="0 0 29 29"
   version="1.1"
   id="svg4475"
   sodipodi:docname="color.svg"
   inkscape:version="0.92.3 (2405546, 2018-03-11)">
  <defs
     id="defs4469" />
  <sodipodi:namedview
     id="base"
     pagecolor="#ffffff"
     bordercolor="#666666"
     borderopacity="1.0"
     inkscape:pageopacity="0.0"
     inkscape:pageshadow="2"
     inkscape:zoom="0.49497475"
     inkscape:cx="63.605781"
     inkscape:cy="-61.307625"
     inkscape:document-units="mm"
     inkscape:current-layer="layer1"
     showgrid="false"
     inkscape:window-width="1920"
     inkscape:window-height="1027"
     inkscape:window-x="-8"
     inkscape:window-y="-8"
     inkscape:window-maximized="1"
     fit-margin-top="0"
     fit-margin-left="0"
     fit-margin-right="0"
     fit-margin-bottom="0" />
  <metadata
     id="metadata4472">
    <rdf:RDF>
      <cc:Work
         rdf:about="">
        <dc:format>image/svg+xml</dc:format>
        <dc:type
           rdf:resource="http://purl.org/dc/dcmitype/StillImage" />
        <dc:title></dc:title>
      </cc:Work>
    </rdf:RDF>
  </metadata>
  <g
     inkscape:label="Ebene 1"
     inkscape:groupmode="layer"
     id="layer1"
     transform="translate(-98.235528,-126.10213)">
    <g
       id="g883"
       transform="translate(2.3664461,-0.21205453)">
      <path
         style="stroke-width:0.26458332"
         id="path192"
         d="m 122.15372,137.0593 c -0.57944,-3.00567 -1.74625,-5.43983 -3.46339,-7.23635 -2.09286,-2.18546 -4.8895,-3.29671 -8.31321,-3.29671 -3.42371,0 -6.22036,1.1086 -8.31321,3.29671 -1.71979,1.79652 -2.883958,4.23333 -3.463396,7.23635 a 19.386021,19.386021 0 0 0 -0.359833,4.191 1.7806458,1.7806458 0 0 0 1.780649,1.70392 h 0.26458 v 0.10319 a 1.0583333,1.0583333 0 0 0 1.05833,1.05833 h 0.83344 v 8.68892 a 1.0583333,1.0583333 0 0 0 0.6006,0.96308 c 0.40217,0.33602 1.15094,0.69321 2.73844,0.97102 a 29.591,29.591 0 0 0 4.85246,0.36248 c 3.10092,0 5.715,-0.35983 6.99029,-0.96573 l 0.0794,-0.037 v 0 l 0.0503,-0.0265 0.14817,-0.082 0.0238,-0.0132 0.13758,-0.09 h 0.0159 l 0.13229,-0.10054 a 1.0583333,1.0583333 0 0 0 0.61119,-0.96837 v -8.69157 h 0.83344 a 1.0583333,1.0583333 0 0 0 1.05833,-1.05833 v -0.10319 h 0.26459 a 1.7806458,1.7806458 0 0 0 1.78064,-1.70392 19.386021,19.386021 0 0 0 -0.34131,-4.20158 z m -1.02923,4.1275 a 0.39158333,0.39158333 0 0 1 -0.39158,0.37306 h -1.11919 v -0.79375 h 0.45773 a 0.26458333,0.26458333 0 0 0 0.26458,-0.26458 c -0.0476,-1.79917 -0.45773,-6.29444 -3.22791,-9.18369 -1.66423,-1.73831 -3.93171,-2.61937 -6.73629,-2.61937 -2.80459,0 -5.07736,0.88371 -6.74159,2.62466 -2.77283,2.91042 -3.175,7.38717 -3.22262,9.18105 a 0.26458333,0.26458333 0 0 0 0.26458,0.26458 h 0.46038 v 0.79375 h -1.11919 a 0.39158333,0.39158333 0 0 1 -0.391584,-0.37306 c 0,-0.26459 -0.246063,-6.55109 3.439584,-10.40342 1.82033,-1.90235 4.27831,-2.86544 7.30779,-2.86544 3.02948,0 5.48746,0.96309 7.30779,2.86544 3.69358,3.84969 3.46075,10.13619 3.44752,10.40077 z m -19.10291,-2.97656 c 0.045,-0.28046 0.10054,-0.5715 0.16404,-0.87048 0,0 0,0.0238 0,0.037 v 0.83344 z m 15.14739,-0.80963 a 0.365125,0.365125 0 0 1 -0.0873,0.0979 l -0.0794,0.0582 -0.037,0.0238 c -0.045,0.0265 -0.0952,0.0556 -0.15875,0.0873 h -0.0265 l -0.14817,0.0661 v 0 l -0.0847,-0.0265 -0.11906,-0.037 -0.14816,-0.045 -0.127,-0.037 -0.16405,-0.0423 -0.13758,-0.0344 -0.17727,-0.0397 -0.14817,-0.0317 -0.18521,-0.037 -0.15875,-0.0291 -0.19843,-0.0344 -0.16404,-0.0265 -0.21167,-0.0317 -0.17198,-0.0238 -0.22225,-0.0291 -0.17727,-0.0212 -0.23019,-0.0265 -0.18256,-0.0185 -0.24077,-0.0238 -0.1905,-0.0185 -0.24871,-0.0185 -0.19315,-0.0159 -0.26458,-0.0159 h -0.1905 l -0.26458,-0.0132 h -0.19315 -0.2831 -0.1905 -0.32809 -1.18004 a 27.315583,27.315583 0 0 0 -4.21746,0.35454 v 0 l -0.30956,0.0582 -0.0662,0.0132 -0.23283,0.0503 -0.11642,0.0265 -0.16404,0.0397 -0.14817,0.0397 -0.11641,0.0318 -0.1614,0.0503 -0.045,0.0132 -0.0503,0.0159 -0.0767,0.0238 v 0 l -0.15081,-0.0661 h -0.0265 a 1.8018125,1.8018125 0 0 1 -0.15875,-0.0873 l -0.037,-0.0238 -0.0794,-0.0582 -0.045,-0.0397 v 0 a 0.26458333,0.26458333 0 0 1 -0.045,-0.0582 0.09260417,0.09260417 0 0 1 0,-0.0238 c 0,-0.0767 0.31485,-0.42333 1.85208,-0.73025 a 30.345062,30.345062 0 0 1 9.89277,0 c 1.53988,0.30428 1.85209,0.65353 1.85209,0.73025 a 0.09260417,0.09260417 0 0 1 -0.037,-0.0132 z m -11.53583,1.01336 -0.33073,-0.0635 z m 0.58208,0.0952 -0.45244,-0.0714 z m -0.16669,-0.9234 0.14817,-0.0238 z m 0.36513,-0.0529 0.16404,-0.0212 z m 0.38365,-0.0476 0.17991,-0.0212 z m 0.39952,-0.0423 0.19843,-0.0185 z m 0.41539,-0.0397 0.21431,-0.0159 z m 0.43127,-0.0344 0.23284,-0.0159 z m 0.4445,-0.0265 h 0.26459 z m 0.45773,-0.0212 h 0.26458 z m 0.79375,-0.0238 h -0.31485 z m -3.88673,0.32279 -0.13229,0.0238 z m -0.45508,0.082 0.11377,-0.0212 z m -0.30163,0.0635 0.0953,-0.0212 z m -0.26458,0.0661 0.0741,-0.0185 z m -0.83344,0.13229 h -0.0317 z m 0.16934,0.0688 z m 5.59858,0.73819 h 0.64029 c 0.26458,0 0.50536,0 0.75406,0 -0.2487,0 -0.49741,0 -0.75406,0 z m 0.15346,-1.47637 z m 6.68866,0.75406 -0.22754,0.0767 z m 0.74348,-2.25954 a 8.3793542,8.3793542 0 0 0 -1.87589,-0.52917 31.977542,31.977542 0 0 0 -10.13883,0 8.3793542,8.3793542 0 0 0 -1.8759,0.52917 2.1166667,2.1166667 0 0 0 -1.1086,0.97102 c 0.39952,-1.53988 1.09802,-3.20146 2.31775,-4.47675 1.3917,-1.45521 3.32316,-2.1934 5.73616,-2.1934 2.413,0 4.33917,0.73819 5.73352,2.19075 1.21709,1.27 1.91559,2.92629 2.31511,4.46881 a 2.1166667,2.1166667 0 0 0 -1.13242,-0.95779 z m -13.95147,1.77006 -0.0132,-0.0212 z m 0.0714,0.0847 -0.0159,-0.0159 z m 0.0952,0.0847 h -0.0185 z m 11.34268,0.7276 c -0.17991,0.0291 -0.36777,0.0582 -0.56356,0.082 0.16669,-0.0212 0.3519,-0.0503 0.5371,-0.0794 z m 0.57679,-0.10583 c -0.16139,0.0317 -0.33073,0.0635 -0.50535,0.0952 0.14817,-0.0291 0.3175,-0.0608 0.4789,-0.0952 z m 0.50007,-0.11377 c -0.14552,0.037 -0.29634,0.0741 -0.46038,0.10848 0.13759,-0.0344 0.2884,-0.0714 0.43392,-0.10848 z m 1.05833,-0.38365 -0.12965,0.0661 z m 0.1905,-0.12171 a 1.4340417,1.4340417 0 0 1 -0.13494,0.09 1.4340417,1.4340417 0 0 0 0.11906,-0.0979 z m 0.11642,-0.10848 a 0.79375,0.79375 0 0 1 -0.10584,0.10054 0.79375,0.79375 0 0 0 0.0979,-0.10054 z m 0.0741,-0.10848 a 0.44979167,0.44979167 0 0 1 -0.0476,0.0767 0.44979167,0.44979167 0 0 0 0.0291,-0.0741 z m 0.037,-0.13758 a 0.301625,0.301625 0 0 1 -0.0212,0.10583 0.301625,0.301625 0 0 0 0.005,-0.10583 z m 1.12447,-0.0238 c 0.0635,0.29368 0.11642,0.57943 0.1614,0.85725 h -0.16139 z m -16.89628,4.47409 v -2.22514 h 1.36789 v 3.13266 h -1.36789 z m 1.89441,1.18798 v -4.92919 a 3.2358542,3.2358542 0 0 0 0.46832,0.21432 v 0 l 0.22225,0.0767 h 0.0423 v 7.54856 a 1.158875,1.158875 0 1 0 2.31775,0 v -5.20435 a 0.62441667,0.62441667 0 0 1 0.32014,-0.54505 h 0.59796 a 0.62441667,0.62441667 0 0 1 0.32015,0.54505 v 7.16227 a 1.1588755,1.1588755 0 0 0 2.31775,0 v -6.72042 a 0.62441667,0.62441667 0 1 1 1.24883,0 v 5.19377 a 1.158875,1.158875 0 0 0 2.31775,0 v -7.48506 a 16.637,16.637 0 0 0 2.24896,-0.37836 6.9215,6.9215 0 0 0 0.70379,-0.21166 3.2411458,3.2411458 0 0 0 0.46831,-0.21432 v 14.50446 l -0.0159,0.0238 c -0.11906,0.18521 -0.52916,0.37571 -1.1721,0.54504 -1.18798,0.31486 -3.175,0.55563 -5.61181,0.55563 a 29.665083,29.665083 0 0 1 -4.06666,-0.26458 c -1.52664,-0.21431 -2.51883,-0.52917 -2.71727,-0.84402 l -0.0159,-0.0238 v -9.54882 z m 14.13669,-3.39989 h 1.3679 v 3.13266 h -1.37584 v -3.14589 z"
         class="e"
         inkscape:connector-curvature="0" />
      <path
         style="stroke-width:0.26458332"
         id="path194"
         d="m 117.42297,137.48528 a 0.301625,0.301625 0 0 0 0.0212,-0.10583"
         class="e"
         inkscape:connector-curvature="0" />
      <path
         style="stroke-width:0.26458332"
         id="path196"
         d="m 117.3436,137.62286 a 0.79375,0.79375 0 0 1 -0.10584,0.10055"
         class="e"
         inkscape:connector-curvature="0" />
      <path
         style="stroke-width:0.26458332"
         id="path198"
         d="m 116.89645,137.9192 0.12965,-0.0661"
         class="e"
         inkscape:connector-curvature="0" />
      <path
         style="stroke-width:0.26458332"
         id="path200"
         d="m 117.4071,137.51703 a 0.44979167,0.44979167 0 0 1 -0.0476,0.0767"
         class="e"
         inkscape:connector-curvature="0" />
      <path
         style="stroke-width:0.26458332"
         id="path202"
         d="m 117.07901,137.8213 a 1.4340417,1.4340417 0 0 0 0.13494,-0.09"
         class="e"
         inkscape:connector-curvature="0" />
      <path
         style="stroke-width:0.26458332"
         id="path204"
         d="m 103.35772,137.54084 0.0132,0.0212"
         class="e"
         inkscape:connector-curvature="0" />
      <path
         style="stroke-width:0.26458332"
         id="path206"
         d="m 103.53764,137.72341 h -0.0185"
         class="e"
         inkscape:connector-curvature="0" />
      <path
         style="stroke-width:0.26458332"
         id="path208"
         d="m 103.42651,137.6308 0.0159,0.0159"
         class="e"
         inkscape:connector-curvature="0" />
      <path
         style="stroke-width:0.26458332"
         id="path210"
         d="m 115.95983,138.2367 c -0.14553,0.037 -0.29634,0.0741 -0.46038,0.10848"
         class="e"
         inkscape:connector-curvature="0" />
      <path
         style="stroke-width:0.26458332"
         id="path212"
         d="m 114.31941,138.54097 c 0.19579,-0.0265 0.38364,-0.0529 0.56356,-0.082"
         class="e"
         inkscape:connector-curvature="0" />
      <path
         style="stroke-width:0.26458332"
         id="path214"
         d="m 115.45976,138.35047 c -0.16139,0.0317 -0.33073,0.0635 -0.50535,0.0952"
         class="e"
         inkscape:connector-curvature="0" />
      <path
         style="stroke-width:0.26458332"
         id="path216"
         d="m 109.88764,137.29743 h 0.48948"
         class="e"
         inkscape:connector-curvature="0" />
      <path
         style="stroke-width:0.26458332"
         id="path218"
         d="m 107.19418,137.44295 0.19844,-0.0185"
         class="e"
         inkscape:connector-curvature="0" />
      <path
         style="stroke-width:0.26458332"
         id="path220"
         d="m 109.7236,137.30007 h -0.31486"
         class="e"
         inkscape:connector-curvature="0" />
      <path
         style="stroke-width:0.26458332"
         id="path222"
         d="m 106.04853,137.58847 0.14817,-0.0238"
         class="e"
         inkscape:connector-curvature="0" />
      <path
         style="stroke-width:0.26458332"
         id="path224"
         d="m 104.80235,137.83453 0.0741,-0.0185"
         class="e"
         inkscape:connector-curvature="0" />
      <path
         style="stroke-width:0.26458332"
         id="path226"
         d="m 106.41101,137.53555 0.16405,-0.0212"
         class="e"
         inkscape:connector-curvature="0" />
      <path
         style="stroke-width:0.26458332"
         id="path228"
         d="m 108.94043,137.32124 h 0.26458"
         class="e"
         inkscape:connector-curvature="0" />
      <path
         style="stroke-width:0.26458332"
         id="path230"
         d="m 108.0382,137.37151 0.23283,-0.0159"
         class="e"
         inkscape:connector-curvature="0" />
      <path
         style="stroke-width:0.26458332"
         id="path232"
         d="m 105.49556,137.68372 -0.11378,0.0212"
         class="e"
         inkscape:connector-curvature="0" />
      <path
         style="stroke-width:0.26458332"
         id="path234"
         d="m 106.79466,137.48793 0.17992,-0.0212"
         class="e"
         inkscape:connector-curvature="0" />
      <path
         style="stroke-width:0.26458332"
         id="path236"
         d="m 108.4827,137.34505 h 0.26458"
         class="e"
         inkscape:connector-curvature="0" />
      <path
         style="stroke-width:0.26458332"
         id="path238"
         d="m 105.07751,137.76838 0.0952,-0.0212"
         class="e"
         inkscape:connector-curvature="0" />
      <path
         style="stroke-width:0.26458332"
         id="path240"
         d="m 107.60693,137.40591 0.21431,-0.0159"
         class="e"
         inkscape:connector-curvature="0" />
      <path
         style="stroke-width:0.26458332"
         id="path242"
         d="m 105.70193,137.64403 0.13229,-0.0238"
         class="e"
         inkscape:connector-curvature="0" />
      <path
         style="stroke-width:0.26458332"
         id="path244"
         d="m 103.93716,137.95624 h 0.0317"
         class="e"
         inkscape:connector-curvature="0" />
      <path
         style="stroke-width:0.26458332"
         id="path246"
         d="m 116.57895,138.04884 -0.22754,0.0767"
         class="e"
         inkscape:connector-curvature="0" />
      <line
         style="stroke-width:0.26458332"
         id="line248"
         y2="138.03563"
         x2="104.13825"
         y1="138.03563"
         x1="104.13825"
         class="e" />
      <path
         style="stroke-width:0.26458332"
         id="path250"
         d="m 105.76278,138.44043 0.45244,0.0714"
         class="e"
         inkscape:connector-curvature="0" />
      <path
         style="stroke-width:0.26458332"
         id="path252"
         d="m 110.37712,138.78174 c 0.26458,0 0.50535,0 0.75406,0"
         class="e"
         inkscape:connector-curvature="0" />
      <path
         style="stroke-width:0.26458332"
         id="path254"
         d="m 109.73683,138.78174 h 0.64029"
         class="e"
         inkscape:connector-curvature="0" />
      <path
         style="stroke-width:0.26458332"
         id="path256"
         d="m 105.63049,138.41661 -0.33073,-0.0635"
         class="e"
         inkscape:connector-curvature="0" />
    </g>
  </g>
</svg>
