<?xml version="1.0" encoding="UTF-8" standalone="no"?>
<!-- Created with Inkscape (http://www.inkscape.org/) -->

<svg
   xmlns:dc="http://purl.org/dc/elements/1.1/"
   xmlns:cc="http://creativecommons.org/ns#"
   xmlns:rdf="http://www.w3.org/1999/02/22-rdf-syntax-ns#"
   xmlns:svg="http://www.w3.org/2000/svg"
   xmlns="http://www.w3.org/2000/svg"
   xmlns:sodipodi="http://sodipodi.sourceforge.net/DTD/sodipodi-0.dtd"
   xmlns:inkscape="http://www.inkscape.org/namespaces/inkscape"
   width="27.035089mm"
   height="26.106485mm"
   viewBox="0 0 27.035089 26.106485"
   version="1.1"
   id="svg4749"
   inkscape:version="0.92.3 (2405546, 2018-03-11)"
   sodipodi:docname="pattern.svg">
  <defs
     id="defs4743" />
  <sodipodi:namedview
     id="base"
     pagecolor="#ffffff"
     bordercolor="#666666"
     borderopacity="1.0"
     inkscape:pageopacity="0.0"
     inkscape:pageshadow="2"
     inkscape:zoom="0.35"
     inkscape:cx="159.90586"
     inkscape:cy="-86.796648"
     inkscape:document-units="mm"
     inkscape:current-layer="layer1"
     showgrid="false"
     inkscape:window-width="929"
     inkscape:window-height="670"
     inkscape:window-x="1093"
     inkscape:window-y="275"
     inkscape:window-maximized="0"
     fit-margin-top="0"
     fit-margin-left="0"
     fit-margin-right="0"
     fit-margin-bottom="0" />
  <metadata
     id="metadata4746">
    <rdf:RDF>
      <cc:Work
         rdf:about="">
        <dc:format>image/svg+xml</dc:format>
        <dc:type
           rdf:resource="http://purl.org/dc/dcmitype/StillImage" />
        <dc:title></dc:title>
      </cc:Work>
    </rdf:RDF>
  </metadata>
  <g
     inkscape:label="Ebene 1"
     inkscape:groupmode="layer"
     id="layer1"
     transform="translate(-96.03086,-130.00001)">
    <g
       id="g3757">
      <path
         style="stroke-width:0.26458332"
         id="path168"
         d="m 109.46375,135.79178 v 0 0 q 0,0.15611 0,0.31221 h 1.95263 a 0.96572917,0.96572917 0 0 0 0,-0.14552 0.1825625,0.1825625 0 0 0 -0.20902,-0.17198 h -0.09 -1.64307 c 0,-0.0582 0,-0.11377 0,-0.17198 0,-0.13758 0,-0.26458 0,-0.41539 0,-0.15082 -0.0529,-0.17463 -0.21695,-0.18257 h -0.17992 c -0.14023,0 -0.2831,0 -0.42333,0 a 0.14816667,0.14816667 0 0 1 -0.17992,-0.12964 1.1615208,1.1615208 0 0 1 0,-0.16934 c 0,-0.082 0,-0.16404 0,-0.24341 0,-0.20902 -0.0529,-0.24607 -0.29898,-0.25136 -0.24606,-0.005 -0.42333,0 -0.635,0 0,0.19315 0,0.38894 0,0.58209 0,0.33073 0,0.65881 0,0.98954 h 0.95779 0.97631 z"
         inkscape:connector-curvature="0" />
      <path
         style="stroke-width:0.26458332"
         id="path170"
         d="M 107.52965,135.78649 Z"
         inkscape:connector-curvature="0" />
      <path
         style="stroke-width:0.26458332"
         id="path172"
         d="m 113.31609,133.56664 a 0.20372917,0.20372917 0 0 0 -0.19315,-0.13494 c -0.0609,0 -0.12171,0 -0.17992,0 -0.39422,0 -0.79375,0 -1.18004,0 -0.31221,0 -0.34925,0.0344 -0.35189,0.28575 0,0.33602 0,0.67204 0,1.00542 0,0.0159 0,0.0318 0,0.0503 0,0.19843 0.045,0.22754 0.28046,0.23812 0.13229,0 0.26458,0 0.39422,0 0.24607,0 0.28046,0.0344 0.29105,0.22754 0,0.0662 0,0.12965 0,0.19579 a 1.8071042,1.8071042 0 0 0 0,0.1958 0.1666875,0.1666875 0 0 0 0.1905,0.1561 c 0.12964,0 0.26458,0 0.39423,0 0.3466,0 0.38629,-0.0344 0.39158,-0.31221 0.005,-0.27781 0,-0.52916 0,-0.80962 v 0 c 0,-0.26459 0,-0.52917 0,-0.80963 a 0.82285417,0.82285417 0 0 0 -0.037,-0.28839 z"
         inkscape:connector-curvature="0" />
      <path
         style="stroke-width:0.26458332"
         id="path174"
         d="m 122.03146,130.00005 h -17.63712 a 1.0292292,1.0292292 0 0 0 -1.02923,1.02923 v 5.06942 h 4.15396 v -0.31486 h -0.29369 -0.39423 c -0.26458,0 -0.27781,0 -0.2831,-0.24077 0,-0.09 0,-0.17991 0,-0.26458 a 1.4366875,1.4366875 0 0 0 0,-0.14817 c 0,-0.10054 -0.0397,-0.127 -0.16934,-0.13229 -0.12964,-0.005 -0.18256,0 -0.26458,0 h -0.87842 -0.79375 v -3.15383 h 0.0661 a 0.08995833,0.08995833 0 0 0 0.10054,-0.0767 c 0,-0.20373 0,-0.4101 0,-0.61383 a 0.08995833,0.08995833 0 0 0 -0.0952,-0.082 h -0.0741 v 0 h 3.19087 0.0529 c 0.22225,0 0.4445,0 0.66675,0 h 2.96598 a 0.82814583,0.82814583 0 0 1 -0.11906,0 h -1.21179 -0.39423 a 0.08995833,0.08995833 0 0 0 -0.10055,0.0741 c 0,0.0661 0,0.12964 0,0.19579 0,0.17198 0,0.34396 0,0.51594 a 3.7676667,3.7676667 0 0 1 0.72496,-0.0238 c 0.17992,0 0.36248,0.0185 0.5424,0.0212 h 0.69585 a 8.8476667,8.8476667 0 0 1 0.96573,0 c 0.28311,0 0.56621,-0.037 0.84667,-0.0291 0.37306,0 0.74612,0 1.11919,0.0212 0.1905,0.0159 0.38364,-0.0185 0.57414,0 0.37306,0.0265 0.37306,-0.0661 0.37836,-0.30427 0,0 0,-0.0159 0,-0.0238 q 0,-0.23283 0,-0.46302 h 1.9341 v 0.0159 c 0,0.20109 0,0.40482 0,0.6059 0,0.14552 -0.0212,0.1614 -0.21431,0.16404 -0.19315,0.003 -0.37836,0 -0.56886,0 h -0.17991 q 0,0.84667 0,1.69334 c 0,0.12964 0,0.26458 0,0.39158 0,0.20108 0.0529,0.23548 0.30956,0.24342 0.12171,0 0.24342,0 0.36248,0 a 0.49741667,0.49741667 0 0 1 0.28839,0.0556 q 0,0.19314 0,0.38894 c 0,0.09 0,0.17727 0,0.26458 0,0.0873 0.0344,0.10054 0.127,0.10848 0.0926,0.008 0.15875,0 0.24078,0 h 0.59795 0.97632 0.66675 0.127 c 0.11377,0 0.14287,-0.0291 0.14552,-0.11906 0.003,-0.09 0,-0.24607 0,-0.36777 0,-0.0741 0,-0.14817 0,-0.21961 a 0.08995833,0.08995833 0 0 1 0.10054,-0.0741 c 0.0609,0 0.12171,0 0.18256,0 h 1.32292 c 0.0609,0 0.12171,0 0.18256,0 h 0.0503 v 2.35214 h -0.65087 -0.12171 a 0.1031875,0.1031875 0 0 1 -0.11113,-0.0979 c 0,-0.0582 0,-0.11377 0,-0.17198 0,-0.12965 0,-0.26458 0,-0.39158 0,-0.09 -0.0344,-0.10848 -0.15081,-0.11642 h -1.78594 q 0,1.08214 0,2.16164 c 0,0.0318 0,0.0662 0,0.0979 a 0.10054167,0.10054167 0 0 0 0.10584,0.0979 h 0.1217 1.42611 0.12171 c 0.13493,0 0.16404,-0.0265 0.16933,-0.12965 0.005,-0.10319 0,-0.13229 0,-0.19579 0,-0.11377 0,-0.23019 0,-0.34396 a 0.09789583,0.09789583 0 0 1 0.11906,-0.11377 c 0.24342,0 0.48419,0 0.72761,0 h 0.037 v 2.32569 a 0.2143125,0.2143125 0 0 1 -0.0767,0.0238 0.89429167,0.89429167 0 0 1 -0.11907,0 c -0.43391,0 -0.86783,0 -1.30175,0 -0.3122,0 -0.3466,-0.0344 -0.35454,-0.2831 0,-0.16405 0,-0.32809 0,-0.48948 a 6.35,6.35 0 0 0 -0.79375,0 c -0.16404,0 -0.18256,0.0212 -0.18785,0.16404 -0.005,0.14287 0,0.26458 0,0.39158 a 1.2514792,1.2514792 0 0 1 0,0.14552 0.079375,0.079375 0 0 1 -0.0767,0.0661 1.0583333,1.0583333 0 0 1 -0.15081,0 h -1.5875 a 0.10054167,0.10054167 0 0 1 -0.11642,-0.09 c 0,-0.1561 0,-0.30956 0,-0.46567 0,-0.2196 0,-0.2196 -0.26458,-0.22225 h -0.57415 a 0.10583333,0.10583333 0 0 1 -0.12171,-0.0873 1.2303125,1.2303125 0 0 1 0,-0.19579 1.5610417,1.5610417 0 0 1 0.0344,-0.46037 1.6324792,1.6324792 0 0 1 0.56356,-0.0318 c 0.39952,-0.0159 0.36513,0 0.37307,-0.29369 0,-0.12965 0,-0.26459 0,-0.39159 0,-0.0741 0.0344,-0.10054 0.13229,-0.10318 0.0979,-0.003 0.16139,0 0.24341,0 0.14023,0 0.28311,0 0.42334,0 0.14023,0 0.16669,-0.0317 0.16933,-0.12965 0,-0.17198 0,-0.34396 0,-0.51594 0,-0.1217 -0.0318,-0.14552 -0.17462,-0.14816 -0.0794,0 -0.1614,0 -0.24342,0 -0.13229,0 -0.26458,0 -0.39423,0 -0.12965,0 -0.15346,-0.0265 -0.1561,-0.13759 -0.003,-0.11112 0,-0.24606 0,-0.36777 0,-0.0582 0,-0.11377 0,-0.17198 a 0.1031875,0.1031875 0 0 0 -0.11377,-0.0953 h -0.12171 -0.44186 a 0.82285417,0.82285417 0 0 1 -0.09,0 0.16404167,0.16404167 0 0 0 -0.19843,0.17198 c 0,0.13229 0,0.26459 0,0.39423 0,0.18786 -0.0397,0.21696 -0.26459,0.22225 -0.22489,0.005 -0.39687,0 -0.59531,0 a 1.8520833,1.8520833 0 0 1 0.61913,1.37054 v 4.1328 h 0.82814 c 0.39952,0 0.36513,-0.0185 0.36777,0.28575 0,0.12964 0,0.26458 0,0.39158 a 0.10054167,0.10054167 0 0 1 -0.11377,0.0952 c -0.09,0 -0.18256,0 -0.26458,0 h -0.57415 c 0,0.16404 0,0.32808 0,0.48948 a 0.99483333,0.99483333 0 0 1 0,0.14817 0.15610417,0.15610417 0 0 1 -0.17462,0.14022 h -0.0688 v 6.03515 h 6.00075 a 1.0292292,1.0292292 0 0 0 1.02923,-1.02923 v -17.62919 a 1.0292292,1.0292292 0 0 0 -1.03453,-1.01071 z m -0.48948,1.85209 h -0.18256 c -0.23283,0 -0.23548,0 -0.23812,0.19843 0,0.37836 0,0.75407 0,1.13242 0,0.26458 0,0.24342 -0.30163,0.24342 h -1.51871 a 0.10054167,0.10054167 0 0 1 -0.11377,-0.0952 c 0,-0.0741 0,-0.14817 0,-0.22225 0,-0.12171 0,-0.24607 0,-0.36777 a 0.10054167,0.10054167 0 0 0 -0.11642,-0.0926 h -0.54504 c -0.0714,0 -0.14023,0 -0.21166,0 a 0.07408333,0.07408333 0 0 1 -0.0767,-0.0635 3.3707917,3.3707917 0 0 1 0,-0.63764 0.09525,0.09525 0 0 1 0.10318,-0.0741 c 0.18257,0 0.36513,0 0.54504,0 0.29634,0 0.30428,0 0.30428,-0.24341 0,-0.14023 0,-0.27782 0,-0.41805 0,-0.0979 0.0291,-0.11641 0.14287,-0.1217 0.1614,0 0.32279,0 0.48683,0 h 0.15082 0.0794 1.9685 v 0.79375 h -0.46832 z m -2.3495,9.46943 a 0.6270625,0.6270625 0 0 1 0.32015,-0.0503 c 0.13229,0 0.26458,0 0.39423,0 0.18521,0 0.23283,-0.0476 0.24871,-0.1905 0,-0.082 0,-0.16404 0,-0.24606 0,-0.0397 0,-0.082 0,-0.12171 a 0.17727083,0.17727083 0 0 1 0.21695,-0.18785 c 0.17992,0 0.36248,0 0.54505,0 a 0.16404167,0.16404167 0 0 1 0.19314,0.15081 2.38125,2.38125 0 0 1 0,0.26458 c 0,0.12171 0,0.24607 0,0.36777 q 0,0.26459 0,0.52917 a 1.1033125,1.1033125 0 0 1 0,0.12171 0.10847917,0.10847917 0 0 1 -0.13494,0.10319 c -0.21166,0 -0.42068,0 -0.63235,0 -0.31221,0 -0.62177,0 -0.93398,0 -0.22225,0 -0.23283,-0.0132 -0.23283,-0.20109 0,-0.18785 0.0132,-0.36248 0.0159,-0.55033 z m -1.94204,6.56167 c 0,-0.24606 -0.0476,-0.28046 -0.35189,-0.28575 -0.14023,0 -0.28311,0 -0.42334,0 a 0.15610417,0.15610417 0 0 1 -0.18785,-0.1561 3.8179375,3.8179375 0 0 1 0,-0.44186 c 0,-0.10319 0.0608,-0.14552 0.19579,-0.15081 0.26458,0 0.52917,-0.0159 0.79375,-0.0212 a 3.2173333,3.2173333 0 0 1 -0.0132,-0.68263 c 0,-0.0714 0.0397,-0.0952 0.13758,-0.0979 0.15081,0 0.30163,0 0.45244,0 0.0714,0 0.14023,0 0.21167,0 0.11112,0 0.14552,-0.0318 0.1561,-0.11641 a 1.2065,1.2065 0 0 0 0,-0.14552 q 0,-0.56357 0,-1.12713 a 0.74347917,0.74347917 0 0 1 0,-0.0979 0.08995833,0.08995833 0 0 1 0.0926,-0.082 c 0.0794,0 0.1614,0 0.24077,0 h 1.23825 a 0.381,0.381 0 0 1 0.0556,-0.0159 c 0.24606,-0.0318 0.3175,0 0.31221,-0.32544 -0.005,-0.32543 0,-0.62177 0,-0.93133 a 0.77522917,0.77522917 0 0 1 0,-0.12171 0.17991667,0.17991667 0 0 1 0.21431,-0.16669 c 0.26459,0 0.50271,0 0.75406,0 0.29105,0 0.58473,-0.0132 0.87578,0 v 5.76528 h -1.85209 c 0,-0.0185 0,-0.0344 0,-0.0529 0,-0.13494 0.0582,-0.17463 0.22225,-0.18521 0.10054,0 0.20109,0 0.30163,0 0.10054,0 0.17991,0 0.26458,0 a 0.15610417,0.15610417 0 0 0 0.1561,-0.12965 1.6298333,1.6298333 0 0 0 0.0159,-0.19579 c 0,-0.1561 0,-0.30956 0,-0.46567 0,-0.1561 0,-0.35718 -0.0185,-0.52916 0,-0.0476 0,-0.0979 0,-0.14552 a 0.1031875,0.1031875 0 0 0 -0.10847,-0.10055 h -0.09 -1.7489 q 0,0.91282 0,1.82563 h -1.89442 c 0,-0.32279 0,-0.57679 -0.003,-0.83079 z"
         inkscape:connector-curvature="0" />
      <path
         style="stroke-width:0.26458332"
         id="path176"
         d="M 114.18392,136.9242 H 97.06009 a 1.0292292,1.0292292 0 0 0 -1.02923,1.02923 v 17.12383 a 1.0292292,1.0292292 0 0 0 1.02923,1.02923 h 17.12383 a 1.0292292,1.0292292 0 0 0 1.02923,-1.02923 v -17.12648 a 1.0292292,1.0292292 0 0 0 -1.02923,-1.02658 z m -2.43946,18.13189 c 0.0159,-0.045 0.0291,-0.09 0.0423,-0.13758 0.0608,-0.21431 0.127,-0.43921 0.18521,-0.68262 a 4.9027292,4.9027292 0 0 0 0.11642,-1.81505 c -0.46302,-0.0423 -0.6059,0.47096 -0.73025,0.77523 -0.12436,0.30427 -0.23813,0.7038 -0.33602,1.03982 l -0.0503,0.16404 c -0.0661,0.21166 -0.14023,0.42862 -0.21432,0.65352 h -0.77258 q 0.0741,-0.40481 0.14287,-0.81756 c 0.22225,-1.35732 0.39953,-2.75961 0.67205,-4.09575 q 0.0476,-0.22755 0.10054,-0.45773 0.0529,-0.23019 0.11906,-0.48684 v -0.037 q 0.0661,-0.26458 0.13758,-0.52916 c 0.20902,-0.77788 0.43657,-1.57163 0.62442,-2.36538 0.33073,-1.38642 0.61119,-2.72256 1.24883,-3.57187 a 0.23283333,0.23283333 0 0 1 0.12965,-0.12965 c 0.0423,0 0.0344,0.0529 0.0423,0.0873 -0.29369,1.15623 -0.67469,2.29129 -0.60325,3.61421 0.045,0.79375 0.17992,1.5875 0.26458,2.36537 0.0212,0.17463 0.037,0.34925 0.0529,0.52917 v 0.037 c 0,0.16404 0.0212,0.32544 0.0265,0.48683 0,0.21167 0,0.42069 0,0.62971 -0.0291,0.49477 -0.1905,0.98425 -0.17198,1.46315 a 4.048125,4.048125 0 0 0 0.56621,1.79652 5.254625,5.254625 0 0 1 0.6059,1.48167 h -2.20663 z m -11.88773,0 a 7.3395417,7.3395417 0 0 1 0.20109,-0.81756 11.1125,11.1125 0 0 1 0.58473,-1.47108 c 0.73554,-1.56633 1.78858,-2.35479 2.91041,-3.54542 0.12436,-0.13494 0.25136,-0.26458 0.37571,-0.41804 l 0.0344,-0.037 v 0 q 0.15345,-0.17992 0.30162,-0.36248 l 0.15875,-0.20373 0.19315,-0.26458 a 10.726208,10.726208 0 0 0 1.69598,-3.47398 q 0.0714,-0.25136 0.13758,-0.51329 c 0.13229,-0.54505 0.17198,-1.05834 0.30162,-1.55046 a 8.6545208,8.6545208 0 0 1 0.381,-1.1139 l 0.0926,-0.22225 c 0.30957,-0.70908 0.76994,-1.37054 1.05834,-2.11666 q 0.0291,-0.0794 0.0556,-0.15875 c 0.0212,-0.0609 0.0397,-0.12171 0.0556,-0.18257 0.0423,-0.1561 0.0767,-0.30956 0.10319,-0.46302 0,-0.0582 0.0185,-0.11641 0.0265,-0.17462 h 1.2065 l -0.0661,0.17198 c -0.0794,0.21166 -0.15611,0.42598 -0.2249,0.64823 a 9.5779167,9.5779167 0 0 0 -0.24871,0.94456 l -0.0238,0.12171 c -0.13758,0.71173 -0.17992,1.44991 -0.2831,2.19604 -0.0238,0.17198 -0.0503,0.34396 -0.082,0.52916 q -0.0265,0.14288 -0.0582,0.2884 c -0.0476,0.21696 -0.10584,0.43656 -0.17727,0.65617 a 9.5064792,9.5064792 0 0 1 -0.36513,0.94721 8.0565625,8.0565625 0 0 1 -1.14035,1.85208 13.004271,13.004271 0 0 0 -1.53194,2.32039 q -0.13493,0.26459 -0.26457,0.52917 v 0 l -0.0185,0.037 q -0.11378,0.24077 -0.22225,0.48683 c -0.30957,0.70909 -0.59003,1.46315 -0.84932,2.26748 a 18.330333,18.330333 0 0 0 -0.60854,2.28865 q -0.0767,0.39952 -0.127,0.81756 h -3.58246 z m -2.77548,0 v -5.59593 c 0.23019,-0.94192 0.41805,-1.91294 0.81757,-2.64584 a 2.8310417,2.8310417 0 0 1 0.2487,-0.37835 5.3419375,5.3419375 0 0 1 0.68792,-0.60325 c 0.23019,-0.20373 0.43127,-0.45773 0.64558,-0.64558 0.46303,-0.40482 0.99484,-0.7329 1.46315,-1.11919 a 10.395479,10.395479 0 0 0 2.36802,-2.79665 l 0.0661,-0.11906 c 0.19843,-0.36248 0.36777,-0.72496 0.52916,-1.09273 l 0.0609,-0.14023 c 0.13494,-0.32544 0.26458,-0.65352 0.37835,-0.9816 l 0.0556,-0.15081 0.0318,-0.0873 0.26458,-0.73025 h 2.48973 l -0.0344,0.11907 c -0.0714,0.23283 -0.15611,0.46566 -0.24871,0.6985 -0.16404,0.41539 -0.3519,0.82814 -0.52917,1.23825 -0.26458,0.62441 -0.49741,1.25677 -0.81756,1.85208 a 10.31875,10.31875 0 0 1 -0.60589,0.9816 q -0.24342,0.3519 -0.52917,0.68527 l -0.10054,0.12171 q -0.17727,0.21167 -0.36513,0.4154 l -0.0608,0.0635 q -0.26458,0.26458 -0.52917,0.52916 l -0.23812,0.21961 a 13.012208,13.012208 0 0 0 -1.37583,1.32292 c -0.19315,0.23283 -0.37307,0.52916 -0.55828,0.77522 a 8.4666667,8.4666667 0 0 0 -0.55827,0.77523 c -0.52916,0.95515 -0.65352,2.38125 -1.24883,3.27025 -0.26458,0.40482 -0.65881,0.63765 -0.90487,0.98955 a 5.8208333,5.8208333 0 0 0 -0.59267,1.08479 6.5193333,6.5193333 0 0 0 -0.46831,1.93675 h -0.3519 z m 10.36109,-0.0503 a 3.8973125,3.8973125 0 0 0 0.0952,-0.76729 c 0.0212,-0.72496 -0.13759,-1.41287 -0.18257,-2.28864 a 8.5301667,8.5301667 0 0 1 0.18786,-2.26748 q 0.0556,-0.24871 0.12171,-0.48684 v -0.037 q 0.0767,-0.26458 0.16668,-0.52916 a 10.562167,10.562167 0 0 1 0.63236,-1.43934 c 0.13494,-0.26458 0.28046,-0.51064 0.43127,-0.75141 a 8.73125,8.73125 0 0 0 0.64558,-1.11919 7.9163333,7.9163333 0 0 0 0.31221,-0.89165 c 0.30163,-1.03187 0.48948,-2.20398 0.79375,-3.2385 0.0688,-0.22489 0.14552,-0.44979 0.22754,-0.67204 q 0.14817,-0.40746 0.32015,-0.80698 c 0.12964,-0.30692 0.26458,-0.61383 0.4101,-0.92075 0.14552,-0.30692 0.26459,-0.54504 0.38894,-0.81756 h 1.22238 c -0.20903,0.26458 -0.43392,0.54504 -0.67205,0.80962 v 0 a 8.4111042,8.4111042 0 0 0 -0.74612,0.92075 4.1618958,4.1618958 0 0 0 -0.45773,0.86784 l -0.0344,0.0953 a 7.27075,7.27075 0 0 0 -0.29633,1.51871 c -0.0661,0.58737 0,1.38906 -0.17198,1.93675 a 3.7597292,3.7597292 0 0 1 -0.38629,0.83343 c -0.26459,0.45773 -0.60855,0.90223 -0.86255,1.40229 -0.20637,0.40482 -0.45773,0.81757 -0.66939,1.25413 a 4.8683333,4.8683333 0 0 0 -0.381,1.02394 3.2146875,3.2146875 0 0 0 -0.0661,0.38893 c 0,0.045 0,0.09 0,0.13494 0,0.045 0,0.0238 0,0.037 a 4.0560625,4.0560625 0 0 0 0,0.48684 c 0.0344,0.48683 0.13493,0.97895 0.17727,1.44991 a 17.819687,17.819687 0 0 1 0.0265,3.10621 q -0.037,0.41275 -0.0979,0.81756 h -1.14565 z m -8.96409,-17.03123 h 2.91042 a 4.524375,4.524375 0 0 0 -0.39687,0.81757 4.111625,4.111625 0 0 0 -0.127,0.42068 c -0.19315,0.79375 -0.21696,1.9394 -0.64559,2.62467 -0.33866,0.5424 -1.24354,1.11125 -1.76477,1.54781 -0.18521,0.15611 -0.37042,0.31486 -0.55033,0.47361 -0.2884,0.26458 -0.56886,0.52916 -0.81756,0.762 v -5.78644 a 12.47775,12.47775 0 0 0 1.3917,-0.8599 z"
         inkscape:connector-curvature="0" />
    </g>
  </g>
</svg>
