<?xml version="1.0" encoding="UTF-8" standalone="no"?>
<!-- Created with Inkscape (http://www.inkscape.org/) -->

<svg
   xmlns:dc="http://purl.org/dc/elements/1.1/"
   xmlns:cc="http://creativecommons.org/ns#"
   xmlns:rdf="http://www.w3.org/1999/02/22-rdf-syntax-ns#"
   xmlns:svg="http://www.w3.org/2000/svg"
   xmlns="http://www.w3.org/2000/svg"
   xmlns:sodipodi="http://sodipodi.sourceforge.net/DTD/sodipodi-0.dtd"
   xmlns:inkscape="http://www.inkscape.org/namespaces/inkscape"
   width="10.208321mm"
   height="11.068738mm"
   viewBox="0 0 10.208321 11.068738"
   version="1.1"
   id="svg847"
   inkscape:version="0.92.3 (2405546, 2018-03-11)"
   sodipodi:docname="share.svg">
  <defs
     id="defs841" />
  <sodipodi:namedview
     id="base"
     pagecolor="#ffffff"
     bordercolor="#666666"
     borderopacity="1.0"
     inkscape:pageopacity="0.0"
     inkscape:pageshadow="2"
     inkscape:zoom="0.35"
     inkscape:cx="-736.42311"
     inkscape:cy="-130.51126"
     inkscape:document-units="mm"
     inkscape:current-layer="layer1"
     showgrid="false"
     fit-margin-top="0"
     fit-margin-left="0"
     fit-margin-right="0"
     fit-margin-bottom="0"
     inkscape:window-width="1920"
     inkscape:window-height="1027"
     inkscape:window-x="-8"
     inkscape:window-y="-8"
     inkscape:window-maximized="1" />
  <metadata
     id="metadata844">
    <rdf:RDF>
      <cc:Work
         rdf:about="">
        <dc:format>image/svg+xml</dc:format>
        <dc:type
           rdf:resource="http://purl.org/dc/dcmitype/StillImage" />
        <dc:title></dc:title>
      </cc:Work>
    </rdf:RDF>
  </metadata>
  <g
     inkscape:label="Ebene 1"
     inkscape:groupmode="layer"
     id="layer1"
     transform="translate(-174.81254,-103.23349)">
    <path
       inkscape:connector-curvature="0"
       d="m 177.00587,107.09938 0.12965,0.0423 z"
       id="path340"
       style="stroke-width:0.26458332" />
    <path
       inkscape:connector-curvature="0"
       d="m 177.20431,107.16288 a 1.7330208,1.7330208 0 0 1 0.16933,0.0794 1.730375,1.730375 0 0 0 -0.16933,-0.0794 z"
       id="path342"
       style="stroke-width:0.26458332" />
    <path
       inkscape:connector-curvature="0"
       d="m 174.85746,109.16313 -0.0159,-0.0688 c 0.005,0.0212 0.0106,0.045 0.0159,0.0688 z"
       id="path344"
       style="stroke-width:0.26458332" />
    <path
       inkscape:connector-curvature="0"
       d="m 174.82571,108.99379 c 0,-0.0185 0,-0.0397 0,-0.0582 0,-0.0185 -0.003,0.0397 0,0.0582 z"
       id="path346"
       style="stroke-width:0.26458332" />
    <path
       inkscape:connector-curvature="0"
       d="m 174.88921,109.31658 v -0.0767 c 0,0.0291 0,0.0529 0,0.0767 z"
       id="path348"
       style="stroke-width:0.26458332" />
    <path
       inkscape:connector-curvature="0"
       d="m 176.81537,107.05704 0.13494,0.0265 z"
       id="path350"
       style="stroke-width:0.26458332" />
    <path
       inkscape:connector-curvature="0"
       d="m 176.55079,107.03323 a 1.7515417,1.7515417 0 0 1 0.20373,0 1.7515417,1.7515417 0 0 0 -0.20373,0 z"
       id="path352"
       style="stroke-width:0.26458332" />
    <path
       inkscape:connector-curvature="0"
       d="m 177.58531,107.38777 0.10583,0.0847 z"
       id="path354"
       style="stroke-width:0.26458332" />
    <path
       inkscape:connector-curvature="0"
       d="m 177.37894,107.24225 a 1.7383125,1.7383125 0 0 1 0.16404,0.10054 1.7409583,1.7409583 0 0 0 -0.16404,-0.10054 z"
       id="path356"
       style="stroke-width:0.26458332" />
    <path
       inkscape:connector-curvature="0"
       d="m 177.83402,107.60473 -0.0953,-0.0979 z"
       id="path358"
       style="stroke-width:0.26458332" />
    <path
       inkscape:connector-curvature="0"
       d="m 177.87371,107.65235 a 1.74625,1.74625 0 0 1 0.11112,0.14288 1.74625,1.74625 0 0 0 -0.11112,-0.14288 z"
       id="path360"
       style="stroke-width:0.26458332" />
    <path
       inkscape:connector-curvature="0"
       d="m 178.21502,109.2769 a 1.74625,1.74625 0 0 0 -0.2249,-1.48167 c -0.40745,0.66675 -1.2991,1.5875 -3.08504,1.53723 a 1.7383125,1.7383125 0 0 0 3.30994,-0.0556 z"
       id="path362"
       style="stroke-width:0.26458332" />
    <path
       inkscape:connector-curvature="0"
       d="m 183.7501,103.3026 0.12965,0.0423 z"
       id="path364"
       style="stroke-width:0.26458332" />
    <path
       inkscape:connector-curvature="0"
       d="m 183.54637,103.26027 0.13494,0.0265 z"
       id="path366"
       style="stroke-width:0.26458332" />
    <path
       inkscape:connector-curvature="0"
       d="m 183.93531,103.3661 a 1.7330208,1.7330208 0 0 1 0.16933,0.0794 1.730375,1.730375 0 0 0 -0.16933,-0.0794 z"
       id="path368"
       style="stroke-width:0.26458332" />
    <path
       inkscape:connector-curvature="0"
       d="m 183.28179,103.23646 a 1.7515417,1.7515417 0 0 1 0.20373,0 1.7488958,1.7488958 0 0 0 -0.20373,0 z"
       id="path370"
       style="stroke-width:0.26458332" />
    <path
       inkscape:connector-curvature="0"
       d="m 181.55935,105.19702 c 0,-0.0185 0,-0.0397 0,-0.0582 0,-0.0185 -0.003,0.0397 0,0.0582 z"
       id="path372"
       style="stroke-width:0.26458332" />
    <path
       inkscape:connector-curvature="0"
       d="m 184.10994,103.44813 a 1.7409583,1.7409583 0 0 1 0.16404,0.10054 1.7356667,1.7356667 0 0 0 -0.16404,-0.10054 z"
       id="path374"
       style="stroke-width:0.26458332" />
    <path
       inkscape:connector-curvature="0"
       d="m 184.31896,103.58306 0.10583,0.0847 z"
       id="path376"
       style="stroke-width:0.26458332" />
    <path
       inkscape:connector-curvature="0"
       d="m 184.60471,103.85029 a 1.7515417,1.7515417 0 0 1 0.11112,0.14288 1.74625,1.74625 0 0 0 -0.11112,-0.14288 z"
       id="path378"
       style="stroke-width:0.26458332" />
    <path
       inkscape:connector-curvature="0"
       d="m 181.63873,105.53569 a 1.7383125,1.7383125 0 1 0 3.08504,-1.53723 c -0.4101,0.66939 -1.30175,1.60073 -3.08504,1.53723 z"
       id="path380"
       style="stroke-width:0.26458332" />
    <path
       inkscape:connector-curvature="0"
       d="m 184.47242,103.71006 0.0952,0.0979 z"
       id="path382"
       style="stroke-width:0.26458332" />
    <path
       inkscape:connector-curvature="0"
       d="m 181.60962,105.44838 0.0212,0.0714 z"
       id="path384"
       style="stroke-width:0.26458332" />
    <path
       inkscape:connector-curvature="0"
       d="m 181.57523,105.29492 v 0 c 0,0.0238 0,0.0476 0.0159,0.0688 z"
       id="path386"
       style="stroke-width:0.26458332" />
    <path
       inkscape:connector-curvature="0"
       d="m 184.10994,111.03902 a 1.7409583,1.7409583 0 0 1 0.16404,0.10054 1.7356667,1.7356667 0 0 0 -0.16404,-0.10054 z"
       id="path388"
       style="stroke-width:0.26458332" />
    <path
       inkscape:connector-curvature="0"
       d="m 184.31896,111.17396 0.10583,0.0847 z"
       id="path390"
       style="stroke-width:0.26458332" />
    <path
       inkscape:connector-curvature="0"
       d="m 184.60471,111.44119 a 1.7541875,1.7541875 0 0 1 0.11112,0.14287 1.74625,1.74625 0 0 0 -0.11112,-0.14287 z"
       id="path392"
       style="stroke-width:0.26458332" />
    <path
       inkscape:connector-curvature="0"
       d="m 181.63079,113.11335 -0.0212,-0.0714 z"
       id="path394"
       style="stroke-width:0.26458332" />
    <path
       inkscape:connector-curvature="0"
       d="m 184.47242,111.3036 0.0952,0.0979 z"
       id="path396"
       style="stroke-width:0.26458332" />
    <path
       inkscape:connector-curvature="0"
       d="m 183.28179,110.82735 a 1.7515417,1.7515417 0 0 1 0.20373,0 1.7488958,1.7488958 0 0 0 -0.20373,0 z"
       id="path398"
       style="stroke-width:0.26458332" />
    <path
       inkscape:connector-curvature="0"
       d="m 181.58846,112.95725 -0.0159,-0.0688 c 0.005,0.0238 0.0106,0.0556 0.0159,0.0688 z"
       id="path400"
       style="stroke-width:0.26458332" />
    <path
       inkscape:connector-curvature="0"
       d="m 183.93531,110.957 a 1.730375,1.730375 0 0 1 0.16933,0.0794 1.730375,1.730375 0 0 0 -0.16933,-0.0794 z"
       id="path402"
       style="stroke-width:0.26458332" />
    <path
       inkscape:connector-curvature="0"
       d="m 181.63873,113.12923 a 1.7383125,1.7383125 0 1 0 3.08504,-1.53723 c -0.4101,0.66675 -1.30175,1.60073 -3.08504,1.53723 z"
       id="path404"
       style="stroke-width:0.26458332" />
    <path
       inkscape:connector-curvature="0"
       d="m 181.55935,112.79056 c 0,-0.0185 0,-0.0397 0,-0.0582 0,-0.0185 -0.003,0.0371 0,0.0582 z"
       id="path406"
       style="stroke-width:0.26458332" />
    <path
       inkscape:connector-curvature="0"
       d="m 183.7501,110.89615 0.12965,0.0423 z"
       id="path408"
       style="stroke-width:0.26458332" />
    <path
       inkscape:connector-curvature="0"
       d="m 183.54637,110.85117 0.13494,0.0265 z"
       id="path410"
       style="stroke-width:0.26458332" />
    <path
       inkscape:connector-curvature="0"
       d="m 177.99012,107.79788 a 1.7277292,1.7277292 0 0 1 0.26459,0.65616 l 3.86821,-2.18016 a 1.7383125,1.7383125 0 0 1 -0.48948,-0.73555 c 1.78593,0.0635 2.67758,-0.87048 3.08504,-1.53723 v 0 0 a 1.7515417,1.7515417 0 0 0 -0.11113,-0.14287 l -0.0397,-0.0423 -0.0952,-0.0979 -0.0476,-0.0423 -0.10583,-0.0847 -0.045,-0.0344 a 1.7409583,1.7409583 0 0 0 -0.16404,-0.10054 v 0 a 1.7330208,1.7330208 0 0 0 -0.16934,-0.0794 l -0.0556,-0.0212 -0.12965,-0.0423 -0.0661,-0.0159 -0.13494,-0.0265 h -0.0608 a 1.7330208,1.7330208 0 0 0 -1.94204,1.72509 c 0,0.0556 0,0.10848 0,0.16139 0,0.0529 0,0.0397 0,0.0582 0,0.0185 0,0.0661 0.0159,0.0979 l 0.0159,0.0688 c 0,-0.0238 0,-0.045 -0.0159,-0.0688 l -3.86556,2.18016 h -0.0159 l -0.10583,-0.0847 -0.045,-0.0344 A 1.7383125,1.7383125 0 0 0 177.371,107.274 v 0 a 1.7330208,1.7330208 0 0 0 -0.16933,-0.0794 l -0.0556,-0.0212 -0.12964,-0.0423 -0.0661,-0.0159 -0.13494,-0.0265 h -0.0608 a 1.7330208,1.7330208 0 0 0 -1.94204,1.72509 c 0,0.0556 0,0.10847 0,0.16139 0,0.0529 0,0.0397 0,0.0582 0,0.0185 0,0.0662 0.0159,0.0979 l 0.0159,0.0688 c 0,0.0265 0.0132,0.0556 0.0212,0.082 l 0.0212,0.0714 v 0.0159 0 c 1.80446,0.0265 2.69611,-0.90487 3.10356,-1.57162 z m 3.64067,-2.27807 -0.0212,-0.0714 z m -3.79677,2.08492 -0.0953,-0.0979 z m 0.15081,0.18521 a 1.74625,1.74625 0 0 0 -0.11112,-0.14288 1.74625,1.74625 0 0 1 0.11112,0.14288 z"
       id="path412"
       style="stroke-width:0.26458332" />
    <path
       inkscape:connector-curvature="0"
       d="m 184.72112,111.592 v 0 0 A 1.7541875,1.7541875 0 0 0 184.61,111.44913 l -0.0397,-0.0423 -0.0952,-0.0979 -0.0476,-0.0423 -0.10584,-0.0847 -0.045,-0.0344 a 1.7409583,1.7409583 0 0 0 -0.16404,-0.10054 v 0 a 1.730375,1.730375 0 0 0 -0.16933,-0.0794 l -0.0556,-0.0212 -0.12965,-0.0423 -0.0661,-0.0159 -0.13493,-0.0265 h -0.0609 a 1.7515417,1.7515417 0 0 0 -0.20373,0 1.7330208,1.7330208 0 0 0 -1.29116,0.57679 l -3.77561,-2.11666 a 1.7409583,1.7409583 0 0 1 -0.66146,0.91545 l 3.99521,2.25425 c 0,0.0397 0,0.082 0,0.12436 0,0.0423 0,0.10848 0,0.16139 0,0.0529 0,0.0397 0,0.0582 0,0.0185 0,0.0662 0.0159,0.0979 l 0.0159,0.0688 c 0,0.0265 0.0132,0.0556 0.0212,0.082 l 0.0212,0.0714 v 0.0159 0 c 1.78858,0.0212 2.68023,-0.91281 3.08768,-1.57956 z"
       id="path414"
       style="stroke-width:0.26458332" />
  </g>
</svg>
